<svg xmlns="http://www.w3.org/2000/svg" xmlns:xlink="http://www.w3.org/1999/xlink" contentStyleType="text/css" data-diagram-type="DESCRIPTION" height="902px" preserveAspectRatio="none" style="width:1099px;height:902px;background:#FFFFFF;" version="1.1" viewBox="0 0 1099 902" width="1099px" zoomAndPan="magnify"><?plantuml 1.2026.4?><defs/><g><g class="title" data-source-line="1"><text fill="#000000" font-family="Arial" font-size="14" font-weight="700" lengthAdjust="spacing" textLength="328.2549" x="381.8726" y="23.1318">City Audio Monitor - ogolna architektura systemu</text></g><!--cluster Embedded--><g class="cluster" data-qualified-name="Embedded" data-source-line="19" id="ent0002"><polygon fill="#F7FAFC" points="16,53.0986,26,43.0986,428,43.0986,428,319.0986,418,329.0986,16,329.0986,16,53.0986" style="stroke:#2E4057;stroke-width:1;stroke-linejoin:miter;stroke-miterlimit:10;"/><line style="stroke:#2E4057;stroke-width:1;" x1="418" x2="428" y1="53.0986" y2="43.0986"/><line style="stroke:#2E4057;stroke-width:1;" x1="16" x2="418" y1="53.0986" y2="53.0986"/><line style="stroke:#2E4057;stroke-width:1;" x1="418" x2="418" y1="53.0986" y2="329.0986"/><text fill="#000000" font-family="Arial" font-size="14" font-weight="700" lengthAdjust="spacing" textLength="147.8135" x="144.0933" y="69.2305">Urzadzenie embedded</text><text fill="#000000" font-family="Arial" font-size="14" font-weight="700" lengthAdjust="spacing" textLength="148.6064" x="143.6968" y="85.3291">Raspberry Pi Pico 2 W</text></g><!--cluster Mobile--><g class="cluster" data-qualified-name="Mobile" data-source-line="26" id="ent0007"><polygon fill="#F7FAFC" points="622,53.0986,632,43.0986,1074,43.0986,1074,173.0986,1064,183.0986,622,183.0986,622,53.0986" style="stroke:#2E4057;stroke-width:1;stroke-linejoin:miter;stroke-miterlimit:10;"/><line style="stroke:#2E4057;stroke-width:1;" x1="1064" x2="1074" y1="53.0986" y2="43.0986"/><line style="stroke:#2E4057;stroke-width:1;" x1="622" x2="1064" y1="53.0986" y2="53.0986"/><line style="stroke:#2E4057;stroke-width:1;" x1="1064" x2="1064" y1="53.0986" y2="183.0986"/><text fill="#000000" font-family="Arial" font-size="14" font-weight="700" lengthAdjust="spacing" textLength="119.0342" x="784.4829" y="69.2305">Aplikacja mobilna</text><text fill="#000000" font-family="Arial" font-size="14" font-weight="700" lengthAdjust="spacing" textLength="133.0342" x="777.4829" y="85.3291">Android / wearables</text></g><!--cluster VPS--><g class="cluster" data-qualified-name="VPS" data-source-line="33" id="ent0011"><polygon fill="#F7FAFC" points="107,440.0986,117,430.0986,801,430.0986,801,848.0986,791,858.0986,107,858.0986,107,440.0986" style="stroke:#2E4057;stroke-width:1;stroke-linejoin:miter;stroke-miterlimit:10;"/><line style="stroke:#2E4057;stroke-width:1;" x1="791" x2="801" y1="440.0986" y2="430.0986"/><line style="stroke:#2E4057;stroke-width:1;" x1="107" x2="791" y1="440.0986" y2="440.0986"/><line style="stroke:#2E4057;stroke-width:1;" x1="791" x2="791" y1="440.0986" y2="858.0986"/><text fill="#000000" font-family="Arial" font-size="14" font-weight="700" lengthAdjust="spacing" textLength="144.7168" x="377.6416" y="456.2305">VPS - serwer projektu</text></g><!--entity EmbeddedMic--><g class="entity" data-qualified-name="Embedded.EmbeddedMic" data-source-line="20" id="ent0003"><rect fill="#F7FAFC" height="52.1973" rx="2.5" ry="2.5" style="stroke:#2E4057;stroke-width:0.5;" width="146.4512" x="59" y="107.0986"/><text fill="#000000" font-family="Arial" font-size="14" lengthAdjust="spacing" textLength="78.5859" x="69" y="130.2305">Mikrofon I2S</text><text fill="#000000" font-family="Arial" font-size="14" lengthAdjust="spacing" textLength="126.4512" x="69" y="146.3291">+ detekcja impulsow</text></g><!--entity EmbeddedBuffer--><g class="entity" data-qualified-name="Embedded.EmbeddedBuffer" data-source-line="21" id="ent0004"><rect fill="#F7FAFC" height="52.1973" rx="2.5" ry="2.5" style="stroke:#2E4057;stroke-width:0.5;" width="91.6064" x="240" y="107.0986"/><text fill="#000000" font-family="Arial" font-size="14" lengthAdjust="spacing" textLength="71.6064" x="250" y="130.2305">Bufor audio</text><text fill="#000000" font-family="Arial" font-size="14" lengthAdjust="spacing" textLength="62.2275" x="250" y="146.3291">SD / RAM</text></g><!--entity EmbeddedTime--><g class="entity" data-qualified-name="Embedded.EmbeddedTime" data-source-line="22" id="ent0005"><rect fill="#F7FAFC" height="36.0986" rx="2.5" ry="2.5" style="stroke:#2E4057;stroke-width:0.5;" width="155.3994" x="48.5" y="261.0986"/><text fill="#000000" font-family="Arial" font-size="14" lengthAdjust="spacing" textLength="135.3994" x="58.5" y="284.2305">Synchronizacja czasu</text></g><!--entity EmbeddedHealth--><g class="entity" data-qualified-name="Embedded.EmbeddedHealth" data-source-line="23" id="ent0006"><rect fill="#F7FAFC" height="52.1973" rx="2.5" ry="2.5" style="stroke:#2E4057;stroke-width:0.5;" width="164.6963" x="238.5" y="253.0986"/><text fill="#000000" font-family="Arial" font-size="14" lengthAdjust="spacing" textLength="80.1582" x="248.5" y="276.2305">Raport stanu</text><text fill="#000000" font-family="Arial" font-size="14" lengthAdjust="spacing" textLength="144.6963" x="248.5" y="292.3291">bateria, Wi-Fi, mikrofon</text></g><!--entity MobileDetection--><g class="entity" data-qualified-name="Mobile.MobileDetection" data-source-line="27" id="ent0008"><rect fill="#F7FAFC" height="52.1973" rx="2.5" ry="2.5" style="stroke:#2E4057;stroke-width:0.5;" width="168.6611" x="880.5" y="107.0986"/><text fill="#000000" font-family="Arial" font-size="14" lengthAdjust="spacing" textLength="108.165" x="890.5" y="130.2305">Detekcja zdarzen</text><text fill="#000000" font-family="Arial" font-size="14" lengthAdjust="spacing" textLength="148.6611" x="890.5" y="146.3291">na telefonie lub zegarku</text></g><!--entity MobileUpload--><g class="entity" data-qualified-name="Mobile.MobileUpload" data-source-line="28" id="ent0009"><rect fill="#F7FAFC" height="52.1973" rx="2.5" ry="2.5" style="stroke:#2E4057;stroke-width:0.5;" width="180.3301" x="665" y="107.0986"/><text fill="#000000" font-family="Arial" font-size="14" lengthAdjust="spacing" textLength="105.8066" x="675" y="130.2305">Wysylka zdarzen</text><text fill="#000000" font-family="Arial" font-size="14" lengthAdjust="spacing" textLength="160.3301" x="675" y="146.3291">jak urzadzenie embedded</text></g><!--entity Gateway--><g class="entity" data-qualified-name="VPS.Gateway" data-source-line="34" id="ent0012"><rect fill="#F7FAFC" height="52.1973" rx="2.5" ry="2.5" style="stroke:#2E4057;stroke-width:0.5;" width="111.8271" x="420" y="470.0986"/><text fill="#000000" font-family="Arial" font-size="14" lengthAdjust="spacing" textLength="91.8271" x="430" y="493.2305">Nginx gateway</text><text fill="#000000" font-family="Arial" font-size="14" lengthAdjust="spacing" textLength="86.3311" x="430" y="509.3291">HTTP/HTTPS</text></g><!--entity Frontend--><g class="entity" data-qualified-name="VPS.Frontend" data-source-line="35" id="ent0013"><rect fill="#F7FAFC" height="52.1973" rx="2.5" ry="2.5" style="stroke:#2E4057;stroke-width:0.5;" width="155.0371" x="576.5" y="777.5986"/><text fill="#000000" font-family="Arial" font-size="14" lengthAdjust="spacing" textLength="96.4961" x="586.5" y="800.7305">Frontend React</text><text fill="#000000" font-family="Arial" font-size="14" lengthAdjust="spacing" textLength="135.0371" x="586.5" y="816.8291">mapa + panel admina</text></g><!--entity Backend--><g class="entity" data-qualified-name="VPS.Backend" data-source-line="36" id="ent0014"><rect fill="#F7FAFC" height="52.1973" rx="2.5" ry="2.5" style="stroke:#2E4057;stroke-width:0.5;" width="128.165" x="123" y="610.0986"/><text fill="#000000" font-family="Arial" font-size="14" lengthAdjust="spacing" textLength="108.165" x="133" y="633.2305">Backend FastAPI</text><text fill="#000000" font-family="Arial" font-size="14" lengthAdjust="spacing" textLength="49.0273" x="133" y="649.3291">API /api</text></g><!--entity Database--><g class="entity" data-qualified-name="VPS.Database" data-source-line="37" id="ent0015"><path d="M304,775.0986 C304,765.0986 399.9858,765.0986 399.9858,765.0986 C399.9858,765.0986 495.9717,765.0986 495.9717,775.0986 L495.9717,832.3945 C495.9717,842.3945 399.9858,842.3945 399.9858,842.3945 C399.9858,842.3945 304,842.3945 304,832.3945 L304,775.0986" fill="#F3F7EF" style="stroke:#2E4057;stroke-width:0.5;"/><path d="M304,775.0986 C304,785.0986 399.9858,785.0986 399.9858,785.0986 C399.9858,785.0986 495.9717,785.0986 495.9717,775.0986" fill="none" style="stroke:#2E4057;stroke-width:0.5;"/><text fill="#000000" font-family="Arial" font-size="14" lengthAdjust="spacing" textLength="144.3477" x="314" y="802.2305">PostgreSQL + PostGIS</text><text fill="#000000" font-family="Arial" font-size="14" lengthAdjust="spacing" textLength="140.8613" x="314" y="818.3291">urzadzenia, zdarzenia,</text><text fill="#000000" font-family="Arial" font-size="14" lengthAdjust="spacing" textLength="171.9717" x="314" y="834.4277">incydenty, health, time sync</text></g><!--entity Storage--><g class="entity" data-qualified-name="VPS.Storage" data-source-line="38" id="ent0016"><path d="M125.5,768.5986 L166.5,768.5986 A3.75,3.75 0 0 1 169,771.0986 L176,789.5986 L266.4443,789.5986 A2.5,2.5 0 0 1 268.9443,792.0986 L268.9443,836.2959 A2.5,2.5 0 0 1 266.4443,838.7959 L125.5,838.7959 A2.5,2.5 0 0 1 123,836.2959 L123,771.0986 A2.5,2.5 0 0 1 125.5,768.5986" fill="#F1F1F1" style="stroke:#181818;stroke-width:0.5;"/><line style="stroke:#181818;stroke-width:0.5;" x1="123" x2="176" y1="789.5986" y2="789.5986"/><text fill="#000000" font-family="Arial" font-size="14" lengthAdjust="spacing" textLength="87.1787" x="133" y="809.7305">Storage audio</text><text fill="#000000" font-family="Arial" font-size="14" lengthAdjust="spacing" textLength="115.9443" x="133" y="825.8291">fragmenty zdarzen</text></g><!--entity Operator--><g class="entity" data-qualified-name="Operator" data-source-line="17" id="ent0001"><ellipse cx="893.917" cy="606.5986" fill="#F1F1F1" rx="8" ry="8" style="stroke:#181818;stroke-width:0.5;"/><path d="M893.917,614.5986 L893.917,641.5986 M880.917,622.5986 L906.917,622.5986 M893.917,641.5986 L880.917,656.5986 M893.917,641.5986 L906.917,656.5986" fill="none" style="stroke:#181818;stroke-width:0.5;"/><text fill="#000000" font-family="Arial" font-size="14" lengthAdjust="spacing" textLength="147.834" x="820" y="671.2305">Operator / administrator</text></g><!--entity Internet--><g class="entity" data-qualified-name="Internet" data-source-line="31" id="ent0010"><path d="M461.6883,265.8111 C465.6757,259.7371 469.5697,259.7293 474.5416,264.6615 C478.0935,259.0853 481.7394,258.6623 486.498,263.2408 C490.2443,256.5632 495.244,257.9856 498.7709,263.4624 C503.1163,257.5274 507.6912,256.186 512.2988,263.1883 C516.3452,258.0511 520.4061,256.4836 524.4772,263.1628 C526.6448,256.5193 532.4797,255.1244 536.6698,261.2284 C540.5451,255.9511 545.3733,256.0131 548.8908,261.6298 C554.0609,255.9758 558.5305,256.0347 561.8497,263.4632 C565.3294,257.3155 568.9607,258.5534 572.9755,262.8957 C577.1083,256.3416 583.4074,257.065 586.8272,263.6475 C590.9939,257.5212 595.6288,257.5268 599.2025,264.2199 C602.7196,259.2421 607.2229,258.8449 610.1283,264.8295 C619.0315,265.1276 623.3319,271.462 617.4451,279.2594 C623.9716,288.2276 620.5046,293.3326 610.845,295.869 C607.1953,301.9259 601.1264,301.4261 597.6463,295.6792 C593.8077,302.152 588.1513,300.9798 585.1874,294.8167 C582.9314,300.7098 577.9435,300.9301 574.0696,296.5713 C569.8525,303.4576 565.3201,302.8278 560.4231,297.3198 C557.4963,301.9536 552.7636,302.1593 549.6338,297.5568 C545.5477,302.6634 540.9163,303.1812 536.8643,297.5165 C532.4091,303.118 526.6,302.9318 523.3687,296.1794 C520.4908,301.4256 515.6459,301.7816 512.4526,296.5066 C508.6622,303.3858 504.1671,302.3557 499.724,297.1968 C494.7905,302.3889 489.3686,302.5589 485.6772,295.7438 C481.9373,300.995 477.9778,299.9546 474.926,295.0178 C470.6786,301.6444 466.3644,300.852 462.1197,295.015 C452.1723,295.719 446.8623,290.3134 451.2707,280.3773 C446.4675,270.3153 452.3262,265.7423 461.6883,265.8111" fill="#F1F1F1" style="stroke:#181818;stroke-width:0.5;"/><text fill="#000000" font-family="Arial" font-size="14" lengthAdjust="spacing" textLength="135.3857" x="467.5" y="284.2305">Internet / siec miejska</text></g><!--link Operator to Frontend--><g class="link" data-entity-1="ent0001" data-entity-2="ent0013" data-link-type="dependency" data-source-line="41" id="lnk17"><path d="M840.14,674.2386 C794.53,705.6886 734.5059,747.0797 694.6659,774.5597" fill="none" id="Operator-to-Frontend" style="stroke:#2E4057;stroke-width:1;"/><polygon fill="#2E4057" points="690.55,777.3986,700.2297,775.5812,694.6659,774.5597,695.6874,768.9958,690.55,777.3986" style="stroke:#2E4057;stroke-width:1;stroke-linejoin:miter;stroke-miterlimit:10;"/><text fill="#000000" font-family="Arial" font-size="13" lengthAdjust="spacing" textLength="159.707" x="796" y="724.7925">obsluga przez przegladarke</text></g><!--link Frontend to Gateway--><g class="link" data-entity-1="ent0013" data-entity-2="ent0012" data-link-type="dependency" data-source-line="42" id="lnk18"><path d="M655.28,777.1786 C656,751.6186 655.3,714.5386 646,704.0986 C600.48,653.0186 541.18,724.5886 495,674.0986 C456.93,632.4786 462.5978,565.1684 469.4978,527.1184" fill="none" id="Frontend-to-Gateway" style="stroke:#2E4057;stroke-width:1;"/><polygon fill="#2E4057" points="470.39,522.1986,464.8483,530.3405,469.4978,527.1184,472.7199,531.7679,470.39,522.1986" style="stroke:#2E4057;stroke-width:1;stroke-linejoin:miter;stroke-miterlimit:10;"/><text fill="#000000" font-family="Arial" font-size="13" lengthAdjust="spacing" textLength="107.6753" x="496" y="641.2925">zapytania web/API</text></g><!--link Gateway to Frontend--><g class="link" data-entity-1="ent0012" data-entity-2="ent0013" data-link-type="dependency" data-source-line="43" id="lnk19"><path d="M519.66,522.2286 C547.94,540.3286 583.86,566.9686 608,598.0986 C639.36,638.5486 642.54,653.9986 653,704.0986 C658.1,728.5386 658.0282,752.1488 656.7482,772.2188" fill="none" id="Gateway-to-Frontend" style="stroke:#2E4057;stroke-width:1;"/><polygon fill="#2E4057" points="656.43,777.2086,660.9947,768.4815,656.7482,772.2188,653.0109,767.9723,656.43,777.2086" style="stroke:#2E4057;stroke-width:1;stroke-linejoin:miter;stroke-miterlimit:10;"/><text fill="#000000" font-family="Arial" font-size="13" lengthAdjust="spacing" textLength="136.5698" x="648" y="641.2925">statyczna aplikacja web</text></g><!--link Gateway to Backend--><g class="link" data-entity-1="ent0012" data-entity-2="ent0014" data-link-type="dependency" data-source-line="44" id="lnk20"><path d="M419.92,521.8486 C399.13,531.1586 375.42,541.9486 354,552.0986 C314.06,571.0186 273.6929,591.1043 240.5529,607.8443" fill="none" id="Gateway-to-Backend" style="stroke:#2E4057;stroke-width:1;"/><polygon fill="#2E4057" points="236.09,610.0986,245.9268,609.6111,240.5529,607.8443,242.3198,602.4704,236.09,610.0986" style="stroke:#2E4057;stroke-width:1;stroke-linejoin:miter;stroke-miterlimit:10;"/><text fill="#000000" font-family="Arial" font-size="13" lengthAdjust="spacing" textLength="103.3208" x="355" y="565.2925">reverse proxy /api</text></g><!--link Embedded to Internet--><g class="link" data-entity-1="ent0002" data-entity-2="ent0010" data-link-type="dependency" data-source-line="46" id="lnk21"><path d="M428.0536,254.5663 C428.0953,254.5741 428.137,254.5819 428.1787,254.5896 C428.2621,254.6052 428.3455,254.6208 428.429,254.6363 C428.5958,254.6675 428.7628,254.6987 428.9298,254.73 C429.2639,254.7926 429.5982,254.8553 429.9329,254.9183 C430.6022,255.0443 431.2727,255.1711 431.9442,255.2987 C433.2871,255.5539 434.6341,255.8124 435.9838,256.0736 C441.3825,257.1186 441.9272,257.2028 447.3322,258.3128" fill="none" id="Embedded-to-Internet" style="stroke:#2E4057;stroke-width:1;"/><polygon fill="#2E4057" points="452.23,259.3186,444.2187,253.5899,447.3322,258.3128,442.6093,261.4264,452.23,259.3186" style="stroke:#2E4057;stroke-width:1;stroke-linejoin:miter;stroke-miterlimit:10;"/><text fill="#000000" font-family="Arial" font-size="13" lengthAdjust="spacing" textLength="30.3164" x="75" y="220.2925">Wi-Fi</text></g><!--link Mobile to Internet--><g class="link" data-entity-1="ent0007" data-entity-2="ent0010" data-link-type="dependency" data-source-line="47" id="lnk22"><path d="M621.9096,146.362 C621.8291,146.484 621.7481,146.6068 621.6666,146.7304 C621.5036,146.9776 621.3385,147.2278 621.1716,147.481 C620.8376,147.9873 620.4958,148.5055 620.1464,149.0352 C614.5566,157.5099 607.0331,168.9149 598.7613,181.4536 C582.2175,206.5311 565.434,231.9704 552.384,251.7454" fill="none" id="Mobile-to-Internet" style="stroke:#2E4057;stroke-width:1;"/><polygon fill="#2E4057" points="549.63,255.9186,557.9257,250.6101,552.384,251.7454,551.2486,246.2037,549.63,255.9186" style="stroke:#2E4057;stroke-width:1;stroke-linejoin:miter;stroke-miterlimit:10;"/><text fill="#000000" font-family="Arial" font-size="13" lengthAdjust="spacing" textLength="57.77" x="581" y="220.2925">LTE/Wi-Fi</text></g><!--link Internet to Gateway--><g class="link" data-entity-1="ent0010" data-entity-2="ent0012" data-link-type="dependency" data-source-line="48" id="lnk23"><path d="M520.98,302.2586 C512.74,316.3086 502.81,335.1586 497,353.0986 C484.17,392.6886 479.4756,436.0699 477.5356,464.9099" fill="none" id="Internet-to-Gateway" style="stroke:#2E4057;stroke-width:1;"/><polygon fill="#2E4057" points="477.2,469.8986,481.795,461.1874,477.5356,464.9099,473.8131,460.6505,477.2,469.8986" style="stroke:#2E4057;stroke-width:1;stroke-linejoin:miter;stroke-miterlimit:10;"/><text fill="#000000" font-family="Arial" font-size="13" lengthAdjust="spacing" textLength="129.3145" x="498" y="388.7925">zadania HTTP/HTTPS</text></g><!--link Embedded to Backend--><g class="link" data-entity-1="ent0002" data-entity-2="ent0014" data-link-type="dependency" data-source-line="50" id="lnk24"><path d="M28.1552,329.1554 C28.232,329.515 28.3094,329.8743 28.3874,330.2333 C28.5433,330.9513 28.7014,331.668 28.8618,332.3834 C29.1826,333.8141 29.5125,335.2393 29.8517,336.6587 C30.5301,339.4973 31.2456,342.3121 32,345.0986 C60.72,451.1786 130.9821,557.6312 165.5121,605.9312" fill="none" id="Embedded-to-Backend" style="stroke:#2E4057;stroke-width:1;"/><polygon fill="#2E4057" points="168.42,609.9986,166.4398,600.3509,165.5121,605.9312,159.9319,605.0035,168.42,609.9986" style="stroke:#2E4057;stroke-width:1;stroke-linejoin:miter;stroke-miterlimit:10;"/><text fill="#000000" font-family="Arial" font-size="13" lengthAdjust="spacing" textLength="113.439" x="63.865" y="366.2925">rejestracja zdarzen,</text><text fill="#000000" font-family="Arial" font-size="13" lengthAdjust="spacing" textLength="127.1689" x="57" y="381.2412">synchronizacja czasu,</text><text fill="#000000" font-family="Arial" font-size="13" lengthAdjust="spacing" textLength="79.4854" x="80.8418" y="396.1899">raporty stanu,</text><text fill="#000000" font-family="Arial" font-size="13" lengthAdjust="spacing" textLength="80.9263" x="80.1213" y="411.1387">wysylka audio</text></g><!--link Mobile to Backend--><g class="link" data-entity-1="ent0007" data-entity-2="ent0014" data-link-type="dependency" data-source-line="51" id="lnk25"><path d="M643.066,183.2839 C643.1187,183.5391 643.1712,183.7945 643.2235,184.0502 C643.3279,184.5615 643.4314,185.0736 643.5339,185.5865 C643.7387,186.6122 643.9394,187.6408 644.1352,188.6709 C644.5267,190.7311 644.8989,192.7974 645.2467,194.8596 C645.9422,198.9838 646.54,203.0911 647,207.0986 C647.81,214.1586 647.28,215.9886 647,223.0986 C643.66,308.1786 662.54,334.6086 632,414.0986 C610.29,470.6086 594.78,482.4786 549,522.0986 C463.5,596.0986 334.749,621.1127 255.999,629.9227" fill="none" id="Mobile-to-Backend" style="stroke:#2E4057;stroke-width:1;"/><polygon fill="#2E4057" points="251.03,630.4786,260.4189,633.4532,255.999,629.9227,259.5295,625.5028,251.03,630.4786" style="stroke:#2E4057;stroke-width:1;stroke-linejoin:miter;stroke-miterlimit:10;"/><text fill="#000000" font-family="Arial" font-size="13" lengthAdjust="spacing" textLength="109.8271" x="650" y="381.2925">ten sam model API</text><text fill="#000000" font-family="Arial" font-size="13" lengthAdjust="spacing" textLength="78.7808" x="665.5232" y="396.2412">co embedded</text></g><!--link Backend to Database--><g class="link" data-entity-1="ent0014" data-entity-2="ent0015" data-link-type="dependency" data-source-line="53" id="lnk26"><path d="M226.29,662.1586 C244.77,674.3286 266.89,689.4586 286,704.0986 C286.96,704.8286 320.8785,734.1476 352.6585,761.6376" fill="none" id="Backend-to-Database" style="stroke:#2E4057;stroke-width:1;"/><polygon fill="#2E4057" points="356.44,764.9086,352.2501,755.9955,352.6585,761.6376,347.0164,762.0459,356.44,764.9086" style="stroke:#2E4057;stroke-width:1;stroke-linejoin:miter;stroke-miterlimit:10;"/><text fill="#000000" font-family="Arial" font-size="13" lengthAdjust="spacing" textLength="123.5635" x="322" y="724.7925">zapis i odczyt danych</text></g><!--link Backend to Storage--><g class="link" data-entity-1="ent0014" data-entity-2="ent0016" data-link-type="dependency" data-source-line="54" id="lnk27"><path d="M170.22,662.2986 C159.2,681.9886 148,710.1086 155,735.0986 C158.25,746.7186 161.4881,762.7534 167.7881,772.9834" fill="none" id="Backend-to-Storage" style="stroke:#2E4057;stroke-width:1;"/><polygon fill="#2E4057" points="170.41,777.2408,169.0966,767.4799,167.7881,772.9834,162.2847,771.6749,170.41,777.2408" style="stroke:#2E4057;stroke-width:1;stroke-linejoin:miter;stroke-miterlimit:10;"/><text fill="#000000" font-family="Arial" font-size="13" lengthAdjust="spacing" textLength="125.7471" x="156" y="724.7925">zapis audio zdarzenia</text></g><!--link Backend to Backend--><g class="link" data-entity-1="ent0014" data-entity-2="ent0014" data-link-type="dependency" data-source-line="55" id="lnk28"><path d="M251.27,621.8686 C270.76,622.2286 286,626.9686 286,636.0986 C286,645.2286 275.7591,649.8763 256.2691,650.2363" fill="none" id="Backend-to-Backend" style="stroke:#2E4057;stroke-width:1;"/><polygon fill="#2E4057" points="251.27,650.3286,260.3423,654.1617,256.2691,650.2363,260.1946,646.1631,251.27,650.3286" style="stroke:#2E4057;stroke-width:1;stroke-linejoin:miter;stroke-miterlimit:10;"/><text fill="#000000" font-family="Arial" font-size="13" lengthAdjust="spacing" textLength="115.6353" x="292.8887" y="633.7925">grupowanie peakow</text><text fill="#000000" font-family="Arial" font-size="13" lengthAdjust="spacing" textLength="117.4126" x="292" y="648.7412">+ triangulacja TDOA</text></g><!--link Backend to Frontend--><g class="link" data-entity-1="ent0014" data-entity-2="ent0013" data-link-type="dependency" data-source-line="56" id="lnk29"><path d="M251.01,644.9086 C306.39,653.5786 387.34,670.9786 451,704.0986 C469.73,713.8486 468.97,724.1086 487,735.0986 C514.9,752.1086 543.173,764.7106 572.403,775.7606" fill="none" id="Backend-to-Frontend" style="stroke:#2E4057;stroke-width:1;"/><polygon fill="#2E4057" points="577.08,777.5286,570.0759,770.6046,572.403,775.7606,567.247,778.0877,577.08,777.5286" style="stroke:#2E4057;stroke-width:1;stroke-linejoin:miter;stroke-miterlimit:10;"/><text fill="#000000" font-family="Arial" font-size="13" lengthAdjust="spacing" textLength="86.6963" x="521.6108" y="717.2925">lista czujnikow,</text><text fill="#000000" font-family="Arial" font-size="13" lengthAdjust="spacing" textLength="153.918" x="488" y="732.2412">incydenty, status urzadzen</text></g><g class="caption" data-source-line="2"><text fill="#000000" font-family="Arial" font-size="14" lengthAdjust="spacing" textLength="551.0107" x="270.4946" y="891.2305">Schemat pokazuje urzadzenia embedded, aplikacje mobilna, backend i frontend na VPS.</text></g><?plantuml-src XLLHRzis47xNhpXuZtMQ8TiG80y3t2Hk0pIf5wVDYr_Ev5ccHP42ISsLYltt7Md9bjnr3GB3ydtVyNZttQUWWYQuLQ61MIsLXKThLB0EBi3cLXi4T6Ah0XMXTWY-yO7AEXDO1MKDBCMMIWnGsGBRUaTGknPbIqOXKBacAKbE0Ikj2XGSBkrQST8fh54KP2Ges3XhGlpAPtrPBDzccI-KgT1XcL2vixMHjrPpKR_Cqzy0uRSexLwP73QeFGqY5NCnfsLe-8AEH42Jwo50sBAoXapuCKJI1ciTvbpX4vO4CwTG3-8pv-o-A-tg_lTV_xWU16_x_E-ia-H-3llkijVpsVns0Bt3W6lqzFy9ZwZlylqslxuVDk_9of_aIeWVr9MXY4APVAh8OVns2IXBPPGFwNa2wA4FPfdXL33vtEk3ZlfOcMVqrPgSQs2X-5zOk8BNHB_lCF0jWzF0OFAe2cStBC27g-NAlE51iKB53a6LLQsztO_OZqgCwU_g3TUBKV0hixpZofzdZoCA8pRangnbOyIMrQfQZ4U95dqz8hseaiQKPwoi2-1PMVNAh34GAsWAh-fYhgPGThSO9Vb0gCCs-wVlsAnR7koNPsLcHZgh99Uz9nxJMfDFAHuZWCvxTTVtffNekFKhmviMI1EVp6FGzHfQoj4LzI1998cuukDShurlT358jSFYjFEdcGuoVQwqHHdl8xIj9KmUUDsTeS3bUqM2kq0xNs2YzB7-ycm8x4IUt9uSLCxkeWybP8oSNVGfL-OhvDpaFJOhy-7bPN4PFvQ9yFxm-vWoxytdcLZDArDYXV26lSEGFgZvK5UFEvDHPs9pz66sUE31B1xW4YkLE5sKARBRI9Wih0-ve-LV7_cK-F3-WVLxCirftrd-kZBAY4RoISqKjaaLKmWiCNPX8z8H_Qhp6HkhUOzPfBniR7kzk3VyKCOKVUB4wq1nACVjlRZuytXDk06xzhhEaPlUKfi-SusSeg3iY8gKhgtCQB5gMEVi_7jQNt8hiZvsbfgt8JIYZU-MexQPCeBthRrXN_wR7FUEf_-rITtDigCjHEXHJpU7lSgwDJYBVNovlpp4Zp-UrozJzIVTd1qqh6b7qUK6MyNZyl_X3_opInxG74o0d_VT3gK93OizvUT6WMVxBNa9D2HfiIdsovLbFJAoUWqS9g0ylrAj56qJM7Qc4TiHk5T7Zqqrd3GtmfxAoLrTsJt61Qy82xkFbXlOoKnUwtJNbxjFin5vC6xDBuJOZNfd57F7kevQgFtHGh9_0G00?></g></svg>