<svg xmlns="http://www.w3.org/2000/svg" xmlns:xlink="http://www.w3.org/1999/xlink" contentStyleType="text/css" data-diagram-type="ACTIVITY" height="2887px" preserveAspectRatio="none" style="width:655px;height:2887px;background:#FFFFFF;" version="1.1" viewBox="0 0 655 2887" width="655px" zoomAndPan="magnify"><?plantuml 1.2026.4?><defs/><g><g class="title" data-source-line="1"><text fill="#000000" font-family="Arial" font-size="14" font-weight="700" lengthAdjust="spacing" textLength="328.2412" x="162.8022" y="33.1318">City Audio Monitor - logika urzadzenia embedded</text></g><ellipse cx="338.6758" cy="62.0986" fill="#2E4057" rx="10" ry="10" style="stroke:#222222;stroke-width:1;"/><rect fill="#F7FAFC" height="33.7988" rx="12.5" ry="12.5" style="stroke:#2E4057;stroke-width:0.5;" width="264.7871" x="206.2822" y="92.0986"/><text fill="#000000" font-family="Arial" font-size="12" lengthAdjust="spacing" textLength="244.7871" x="216.2822" y="113.3545">Inicjalizacja stdio i krotkie opoznienie startowe</text><rect fill="#F7FAFC" height="33.7988" rx="12.5" ry="12.5" style="stroke:#2E4057;stroke-width:0.5;" width="234.1074" x="221.6221" y="145.8975"/><text fill="#000000" font-family="Arial" font-size="12" lengthAdjust="spacing" textLength="214.1074" x="231.6221" y="167.1533">Uruchomienie pomiaru zasilania INA219</text><rect fill="#F7FAFC" height="33.7988" rx="12.5" ry="12.5" style="stroke:#2E4057;stroke-width:0.5;" width="158.0703" x="259.6406" y="199.6963"/><text fill="#000000" font-family="Arial" font-size="12" lengthAdjust="spacing" textLength="138.0703" x="269.6406" y="220.9521">Sprawdzenie konsoli USB</text><rect fill="#F7FAFC" height="47.5977" rx="12.5" ry="12.5" style="stroke:#2E4057;stroke-width:0.5;" width="304.7832" x="186.2842" y="253.4951"/><text fill="#000000" font-family="Arial" font-size="12" lengthAdjust="spacing" textLength="181.418" x="196.2842" y="274.751">Wczytanie konfiguracji urzadzenia</text><text fill="#000000" font-family="Arial" font-size="12" lengthAdjust="spacing" textLength="284.7832" x="196.2842" y="288.5498">Wi-Fi, ID urzadzenia, adres serwera VPS, progi audio</text><rect fill="#F7FAFC" height="33.7988" rx="12.5" ry="12.5" style="stroke:#2E4057;stroke-width:0.5;" width="169.3965" x="253.9775" y="321.0928"/><text fill="#000000" font-family="Arial" font-size="12" lengthAdjust="spacing" textLength="149.3965" x="263.9775" y="342.3486">Reset wyswietlacza e-paper</text><polygon fill="#FFF8E5" points="277.217,374.8916,400.1345,374.8916,412.1345,386.8916,400.1345,398.8916,277.217,398.8916,265.217,386.8916,277.217,374.8916" style="stroke:#8A6D1D;stroke-width:0.5;stroke-linejoin:miter;stroke-miterlimit:10;"/><text fill="#000000" font-family="Arial" font-size="11" lengthAdjust="spacing" textLength="122.9175" x="277.217" y="390.885">Konfiguracja znaleziona?</text><text fill="#000000" font-family="Arial" font-size="11" lengthAdjust="spacing" textLength="14.6738" x="250.5432" y="384.5605">tak</text><text fill="#000000" font-family="Arial" font-size="11" lengthAdjust="spacing" textLength="14.6792" x="412.1345" y="384.5605">nie</text><rect fill="#F7FAFC" height="47.5977" rx="12.5" ry="12.5" style="stroke:#2E4057;stroke-width:0.5;" width="155.3984" x="156.0991" y="408.8916"/><text fill="#000000" font-family="Arial" font-size="12" lengthAdjust="spacing" textLength="97.3594" x="166.0991" y="430.1475">Wybor trybu pracy</text><text fill="#000000" font-family="Arial" font-size="12" lengthAdjust="spacing" textLength="135.3984" x="166.0991" y="443.9463">normalny / diagnostyczny</text><rect fill="#F7FAFC" height="33.7988" rx="12.5" ry="12.5" style="stroke:#2E4057;stroke-width:0.5;" width="224.1113" x="331.4976" y="408.8916"/><text fill="#000000" font-family="Arial" font-size="12" lengthAdjust="spacing" textLength="204.1113" x="341.4976" y="430.1475">Pokazanie bledu na wyswietlaczu Inky</text><rect fill="#F7FAFC" height="47.5977" rx="12.5" ry="12.5" style="stroke:#2E4057;stroke-width:0.5;" width="202.0684" x="342.519" y="476.4893"/><text fill="#000000" font-family="Arial" font-size="12" lengthAdjust="spacing" textLength="182.0684" x="352.519" y="497.7451">Praca tylko w trybie ograniczonym</text><text fill="#000000" font-family="Arial" font-size="12" lengthAdjust="spacing" textLength="105.3867" x="352.519" y="511.5439">lub diagnostycznym</text><polygon fill="#FFF8E5" points="338.6758,530.0869,350.6758,542.0869,338.6758,554.0869,326.6758,542.0869,338.6758,530.0869" style="stroke:#8A6D1D;stroke-width:0.5;stroke-linejoin:miter;stroke-miterlimit:10;"/><rect fill="#F7FAFC" height="33.7988" rx="12.5" ry="12.5" style="stroke:#2E4057;stroke-width:0.5;" width="144.7285" x="266.3115" y="574.0869"/><text fill="#000000" font-family="Arial" font-size="12" lengthAdjust="spacing" textLength="124.7285" x="276.3115" y="595.3428">Inicjalizacja diagnostyki</text><rect fill="#F7FAFC" height="33.7988" rx="12.5" ry="12.5" style="stroke:#2E4057;stroke-width:0.5;" width="214.7773" x="231.2871" y="627.8857"/><text fill="#000000" font-family="Arial" font-size="12" lengthAdjust="spacing" textLength="194.7773" x="241.2871" y="649.1416">Publikacja lokalnego statusu runtime</text><polygon fill="#FFF8E5" points="285.4885,681.6846,391.863,681.6846,403.863,693.6846,391.863,705.6846,285.4885,705.6846,273.4885,693.6846,285.4885,681.6846" style="stroke:#8A6D1D;stroke-width:0.5;stroke-linejoin:miter;stroke-miterlimit:10;"/><text fill="#000000" font-family="Arial" font-size="11" lengthAdjust="spacing" textLength="106.3745" x="285.4885" y="697.678">Inicjalizacja sieci OK?</text><text fill="#000000" font-family="Arial" font-size="11" lengthAdjust="spacing" textLength="14.6738" x="258.8147" y="691.3535">tak</text><text fill="#000000" font-family="Arial" font-size="11" lengthAdjust="spacing" textLength="14.6792" x="403.863" y="691.3535">nie</text><rect fill="#F7FAFC" height="33.7988" rx="12.5" ry="12.5" style="stroke:#2E4057;stroke-width:0.5;" width="205.4023" x="138.7729" y="715.6846"/><text fill="#000000" font-family="Arial" font-size="12" lengthAdjust="spacing" textLength="185.4023" x="148.7729" y="736.9404">Polaczenie z Wi-Fi z ponowieniami</text><rect fill="#F7FAFC" height="33.7988" rx="12.5" ry="12.5" style="stroke:#2E4057;stroke-width:0.5;" width="143.4043" x="364.1753" y="715.6846"/><text fill="#000000" font-family="Arial" font-size="12" lengthAdjust="spacing" textLength="123.4043" x="374.1753" y="736.9404">Oznaczenie bledu sieci</text><ellipse cx="435.8774" cy="780.4834" fill="none" rx="11" ry="11" style="stroke:#222222;stroke-width:1;"/><ellipse cx="435.8774" cy="780.4834" fill="#222222" rx="6" ry="6" style="stroke:#222222;stroke-width:1;"/><rect fill="#F7FAFC" height="33.7988" rx="12.5" ry="12.5" style="stroke:#2E4057;stroke-width:0.5;" width="146.082" x="265.6348" y="811.4834"/><text fill="#000000" font-family="Arial" font-size="12" lengthAdjust="spacing" textLength="126.082" x="275.6348" y="832.7393">Reset lokalnego zegara</text><rect fill="#F7FAFC" height="33.7988" rx="12.5" ry="12.5" style="stroke:#2E4057;stroke-width:0.5;" width="232.7598" x="222.2959" y="865.2822"/><text fill="#000000" font-family="Arial" font-size="12" lengthAdjust="spacing" textLength="212.7598" x="232.2959" y="886.5381">Inicjalizacja klienta synchronizacji czasu</text><rect fill="#F7FAFC" height="33.7988" rx="12.5" ry="12.5" style="stroke:#2E4057;stroke-width:0.5;" width="205.4316" x="235.96" y="919.0811"/><text fill="#000000" font-family="Arial" font-size="12" lengthAdjust="spacing" textLength="185.4316" x="245.96" y="940.3369">Inicjalizacja klienta raportow health</text><rect fill="#F7FAFC" height="33.7988" rx="12.5" ry="12.5" style="stroke:#2E4057;stroke-width:0.5;" width="320.8203" x="178.2656" y="972.8799"/><text fill="#000000" font-family="Arial" font-size="12" lengthAdjust="spacing" textLength="300.8203" x="188.2656" y="994.1357">Poczatkowa synchronizacja czasu z backendem na VPS</text><rect fill="#F7FAFC" height="33.7988" rx="12.5" ry="12.5" style="stroke:#2E4057;stroke-width:0.5;" width="250.7598" x="213.2959" y="1026.6787"/><text fill="#000000" font-family="Arial" font-size="12" lengthAdjust="spacing" textLength="230.7598" x="223.2959" y="1047.9346">Uspienie Wi-Fi w celu oszczedzania energii</text><rect fill="#F7FAFC" height="47.5977" rx="12.5" ry="12.5" style="stroke:#2E4057;stroke-width:0.5;" width="267.459" x="204.9463" y="1080.4775"/><text fill="#000000" font-family="Arial" font-size="12" lengthAdjust="spacing" textLength="94.0547" x="214.9463" y="1101.7334">Inicjalizacja audio</text><text fill="#000000" font-family="Arial" font-size="12" lengthAdjust="spacing" textLength="247.459" x="214.9463" y="1115.5322">mikrofon I2S, kolejka probek, detektor zdarzen</text><rect fill="#F7FAFC" height="33.7988" rx="12.5" ry="12.5" style="stroke:#2E4057;stroke-width:0.5;" width="225.4414" x="225.9551" y="1148.0752"/><text fill="#000000" font-family="Arial" font-size="12" lengthAdjust="spacing" textLength="205.4414" x="235.9551" y="1169.3311">Oznaczenie mikrofonu jako aktywnego</text><rect fill="#F7FAFC" height="33.7988" rx="12.5" ry="12.5" style="stroke:#2E4057;stroke-width:0.5;" width="148.0625" x="264.6445" y="1201.874"/><text fill="#000000" font-family="Arial" font-size="12" lengthAdjust="spacing" textLength="128.0625" x="274.6445" y="1223.1299">Wejscie do petli glownej</text><rect fill="#F7FAFC" height="33.7988" rx="12.5" ry="12.5" style="stroke:#2E4057;stroke-width:0.5;" width="150.752" x="263.2998" y="1299.6729"/><text fill="#000000" font-family="Arial" font-size="12" lengthAdjust="spacing" textLength="130.752" x="273.2998" y="1320.9287">Petla glowna urzadzenia</text><rect fill="#F7FAFC" height="47.5977" rx="12.5" ry="12.5" style="stroke:#2E4057;stroke-width:0.5;" width="220.7422" x="228.3047" y="1353.4717"/><text fill="#000000" font-family="Arial" font-size="12" lengthAdjust="spacing" textLength="142.7285" x="238.3047" y="1374.7275">Aktualizacja runtime status</text><text fill="#000000" font-family="Arial" font-size="12" lengthAdjust="spacing" textLength="200.7422" x="238.3047" y="1388.5264">bateria, Wi-Fi, mikrofon, kolejka audio</text><rect fill="#F7FAFC" height="33.7988" rx="12.5" ry="12.5" style="stroke:#2E4057;stroke-width:0.5;" width="197.4395" x="239.9561" y="1421.0693"/><text fill="#000000" font-family="Arial" font-size="12" lengthAdjust="spacing" textLength="177.4395" x="249.9561" y="1442.3252">Pobranie pakietow audio z kolejki</text><rect fill="#F7FAFC" height="47.5977" rx="12.5" ry="12.5" style="stroke:#2E4057;stroke-width:0.5;" width="145.4141" x="265.9688" y="1474.8682"/><text fill="#000000" font-family="Arial" font-size="12" lengthAdjust="spacing" textLength="125.4141" x="275.9688" y="1496.124">Analiza lokalna sygnalu</text><text fill="#000000" font-family="Arial" font-size="12" lengthAdjust="spacing" textLength="124.7402" x="275.9688" y="1509.9229">peak, mean, noise floor</text><polygon fill="#FFF8E5" points="270.2104,1542.4658,407.1411,1542.4658,419.1411,1554.4658,407.1411,1566.4658,270.2104,1566.4658,258.2104,1554.4658,270.2104,1542.4658" style="stroke:#8A6D1D;stroke-width:0.5;stroke-linejoin:miter;stroke-miterlimit:10;"/><text fill="#000000" font-family="Arial" font-size="11" lengthAdjust="spacing" textLength="136.9307" x="270.2104" y="1558.4592">Wykryto gwaltowny dzwiek?</text><text fill="#000000" font-family="Arial" font-size="11" lengthAdjust="spacing" textLength="14.6738" x="243.5366" y="1552.1348">tak</text><text fill="#000000" font-family="Arial" font-size="11" lengthAdjust="spacing" textLength="14.6792" x="419.1411" y="1552.1348">nie</text><rect fill="#F7FAFC" height="33.7988" rx="12.5" ry="12.5" style="stroke:#2E4057;stroke-width:0.5;" width="210.752" x="122.9175" y="1576.4658"/><text fill="#000000" font-family="Arial" font-size="12" lengthAdjust="spacing" textLength="190.752" x="132.9175" y="1597.7217">Zapamietanie czasu UTC zdarzenia</text><rect fill="#F7FAFC" height="33.7988" rx="12.5" ry="12.5" style="stroke:#2E4057;stroke-width:0.5;" width="195.418" x="130.5845" y="1630.2646"/><text fill="#000000" font-family="Arial" font-size="12" lengthAdjust="spacing" textLength="175.418" x="140.5845" y="1651.5205">Zachowanie parametrow detekcji</text><rect fill="#F7FAFC" height="47.5977" rx="12.5" ry="12.5" style="stroke:#2E4057;stroke-width:0.5;" width="182.7617" x="136.9126" y="1684.0635"/><text fill="#000000" font-family="Arial" font-size="12" lengthAdjust="spacing" textLength="162.7617" x="146.9126" y="1705.3193">Odczekanie okna post-capture</text><text fill="#000000" font-family="Arial" font-size="12" lengthAdjust="spacing" textLength="96.7324" x="146.9126" y="1719.1182">na fragment audio</text><rect fill="#F7FAFC" height="33.7988" rx="12.5" ry="12.5" style="stroke:#2E4057;stroke-width:0.5;" width="119.3574" x="168.6147" y="1751.6611"/><text fill="#000000" font-family="Arial" font-size="12" lengthAdjust="spacing" textLength="99.3574" x="178.6147" y="1772.917">Polaczenie z Wi-Fi</text><rect fill="#F7FAFC" height="47.5977" rx="12.5" ry="12.5" style="stroke:#2E4057;stroke-width:0.5;" width="264.1133" x="96.2368" y="1805.46"/><text fill="#000000" font-family="Arial" font-size="12" lengthAdjust="spacing" textLength="244.1133" x="106.2368" y="1826.7158">Przygotowanie wysylki metadanych zdarzenia</text><text fill="#000000" font-family="Arial" font-size="12" lengthAdjust="spacing" textLength="159.4395" x="106.2368" y="1840.5146">/api/devices/{id}/sound-events</text><rect fill="#F7FAFC" height="47.5977" rx="12.5" ry="12.5" style="stroke:#2E4057;stroke-width:0.5;" width="230.0996" x="113.2437" y="1873.0576"/><text fill="#000000" font-family="Arial" font-size="12" lengthAdjust="spacing" textLength="210.0996" x="123.2437" y="1894.3135">Przygotowanie wysylki fragmentu audio</text><text fill="#000000" font-family="Arial" font-size="12" lengthAdjust="spacing" textLength="94.7168" x="123.2437" y="1908.1123">jesli jest dostepny</text><rect fill="#F7FAFC" height="33.7988" rx="12.5" ry="12.5" style="stroke:#2E4057;stroke-width:0.5;" width="98.0117" x="179.2876" y="1940.6553"/><text fill="#000000" font-family="Arial" font-size="12" lengthAdjust="spacing" textLength="78.0117" x="189.2876" y="1961.9111">Uspienie Wi-Fi</text><rect fill="#F7FAFC" height="33.7988" rx="12.5" ry="12.5" style="stroke:#2E4057;stroke-width:0.5;" width="137.416" x="380.3501" y="1576.4658"/><text fill="#000000" font-family="Arial" font-size="12" lengthAdjust="spacing" textLength="117.416" x="390.3501" y="1597.7217">Kontynuacja nasluchu</text><polygon fill="#FFF8E5" points="338.6758,1980.4541,350.6758,1992.4541,338.6758,2004.4541,326.6758,1992.4541,338.6758,1980.4541" style="stroke:#8A6D1D;stroke-width:0.5;stroke-linejoin:miter;stroke-miterlimit:10;"/><rect fill="#F7FAFC" height="33.7988" rx="12.5" ry="12.5" style="stroke:#2E4057;stroke-width:0.5;" width="119.3574" x="278.9971" y="2082.4561"/><text fill="#000000" font-family="Arial" font-size="12" lengthAdjust="spacing" textLength="99.3574" x="288.9971" y="2103.7119">Polaczenie z Wi-Fi</text><rect fill="#F7FAFC" height="33.7988" rx="12.5" ry="12.5" style="stroke:#2E4057;stroke-width:0.5;" width="211.4551" x="232.9482" y="2136.2549"/><text fill="#000000" font-family="Arial" font-size="12" lengthAdjust="spacing" textLength="191.4551" x="242.9482" y="2157.5107">Pobranie czasu z backendu na VPS</text><rect fill="#F7FAFC" height="33.7988" rx="12.5" ry="12.5" style="stroke:#2E4057;stroke-width:0.5;" width="178.7656" x="249.293" y="2205.0537"/><text fill="#000000" font-family="Arial" font-size="12" lengthAdjust="spacing" textLength="158.7656" x="259.293" y="2226.3096">Aktualizacja lokalnego zegara</text><rect fill="#F7FAFC" height="33.7988" rx="12.5" ry="12.5" style="stroke:#2E4057;stroke-width:0.5;" width="98.0117" x="289.6699" y="2258.8525"/><text fill="#000000" font-family="Arial" font-size="12" lengthAdjust="spacing" textLength="78.0117" x="299.6699" y="2280.1084">Uspienie Wi-Fi</text><polygon fill="#FFF8E5" points="253.6809,2034.1316,423.6707,2034.1316,435.6707,2046.1316,423.6707,2058.1316,253.6809,2058.1316,241.6809,2046.1316,253.6809,2034.1316" style="stroke:#8A6D1D;stroke-width:0.5;stroke-linejoin:miter;stroke-miterlimit:10;"/><text fill="#000000" font-family="Arial" font-size="11" lengthAdjust="spacing" textLength="14.6738" x="342.6758" y="2068.4495">tak</text><text fill="#000000" font-family="Arial" font-size="11" lengthAdjust="spacing" textLength="169.9897" x="253.6809" y="2050.125">Czas na ponowna synchronizacje?</text><polygon fill="#FFF8E5" points="338.6758,2312.6514,350.6758,2324.6514,338.6758,2336.6514,326.6758,2324.6514,338.6758,2312.6514" style="stroke:#8A6D1D;stroke-width:0.5;stroke-linejoin:miter;stroke-miterlimit:10;"/><rect fill="#F7FAFC" height="33.7988" rx="12.5" ry="12.5" style="stroke:#2E4057;stroke-width:0.5;" width="119.3574" x="278.9971" y="2404.9758"/><text fill="#000000" font-family="Arial" font-size="12" lengthAdjust="spacing" textLength="99.3574" x="288.9971" y="2426.2317">Polaczenie z Wi-Fi</text><rect fill="#F7FAFC" height="47.5977" rx="12.5" ry="12.5" style="stroke:#2E4057;stroke-width:0.5;" width="267.4355" x="204.958" y="2458.7747"/><text fill="#000000" font-family="Arial" font-size="12" lengthAdjust="spacing" textLength="122.7246" x="214.958" y="2480.0305">Wyslanie raportu stanu</text><text fill="#000000" font-family="Arial" font-size="12" lengthAdjust="spacing" textLength="247.4355" x="214.958" y="2493.8293">bateria, INA219, Wi-Fi, mikrofon, kolejka audio</text><rect fill="#F7FAFC" height="33.7988" rx="12.5" ry="12.5" style="stroke:#2E4057;stroke-width:0.5;" width="98.0117" x="289.6699" y="2526.3723"/><text fill="#000000" font-family="Arial" font-size="12" lengthAdjust="spacing" textLength="78.0117" x="299.6699" y="2547.6282">Uspienie Wi-Fi</text><polygon fill="#FFF8E5" points="283.0313,2356.6514,394.3203,2356.6514,406.3203,2368.6514,394.3203,2380.6514,283.0313,2380.6514,271.0313,2368.6514,283.0313,2356.6514" style="stroke:#8A6D1D;stroke-width:0.5;stroke-linejoin:miter;stroke-miterlimit:10;"/><text fill="#000000" font-family="Arial" font-size="11" lengthAdjust="spacing" textLength="14.6738" x="342.6758" y="2390.9692">tak</text><text fill="#000000" font-family="Arial" font-size="11" lengthAdjust="spacing" textLength="111.2891" x="283.0313" y="2372.6448">Czas na raport health?</text><polygon fill="#FFF8E5" points="338.6758,2580.1711,350.6758,2592.1711,338.6758,2604.1711,326.6758,2592.1711,338.6758,2580.1711" style="stroke:#8A6D1D;stroke-width:0.5;stroke-linejoin:miter;stroke-miterlimit:10;"/><rect fill="#F7FAFC" height="33.7988" rx="12.5" ry="12.5" style="stroke:#2E4057;stroke-width:0.5;" width="80.0293" x="298.6611" y="2672.4956"/><text fill="#000000" font-family="Arial" font-size="12" lengthAdjust="spacing" textLength="60.0293" x="308.6611" y="2693.7515">Sleep 2 ms</text><polygon fill="#FFF8E5" points="265.9189,2624.1711,411.4326,2624.1711,423.4326,2636.1711,411.4326,2648.1711,265.9189,2648.1711,253.9189,2636.1711,265.9189,2624.1711" style="stroke:#8A6D1D;stroke-width:0.5;stroke-linejoin:miter;stroke-miterlimit:10;"/><text fill="#000000" font-family="Arial" font-size="11" lengthAdjust="spacing" textLength="14.6738" x="342.6758" y="2658.489">tak</text><text fill="#000000" font-family="Arial" font-size="11" lengthAdjust="spacing" textLength="145.5137" x="265.9189" y="2640.1646">Brak przetworzonych probek?</text><polygon fill="#FFF8E5" points="338.6758,2726.2944,350.6758,2738.2944,338.6758,2750.2944,326.6758,2738.2944,338.6758,2726.2944" style="stroke:#8A6D1D;stroke-width:0.5;stroke-linejoin:miter;stroke-miterlimit:10;"/><polygon fill="#FFF8E5" points="338.6758,1255.6729,350.6758,1267.6729,338.6758,1279.6729,326.6758,1267.6729,338.6758,1255.6729" style="stroke:#8A6D1D;stroke-width:0.5;stroke-linejoin:miter;stroke-miterlimit:10;"/><polygon fill="#FFF8E5" points="283.3401,2770.2944,394.0115,2770.2944,406.0115,2782.2944,394.0115,2794.2944,283.3401,2794.2944,271.3401,2782.2944,283.3401,2770.2944" style="stroke:#8A6D1D;stroke-width:0.5;stroke-linejoin:miter;stroke-miterlimit:10;"/><text fill="#000000" font-family="Arial" font-size="11" lengthAdjust="spacing" textLength="14.6792" x="342.6758" y="2804.6123">nie</text><text fill="#000000" font-family="Arial" font-size="11" lengthAdjust="spacing" textLength="110.6714" x="283.3401" y="2786.2878">Urzadzenie wlaczone?</text><text fill="#000000" font-family="Arial" font-size="11" lengthAdjust="spacing" textLength="14.6738" x="406.0115" y="2779.9634">tak</text><ellipse cx="338.6758" cy="2837.1123" fill="none" rx="11" ry="11" style="stroke:#222222;stroke-width:1;"/><ellipse cx="338.6758" cy="2837.1123" fill="#222222" rx="6" ry="6" style="stroke:#222222;stroke-width:1;"/><line style="stroke:#181818;stroke-width:1;" x1="338.6758" x2="338.6758" y1="72.0986" y2="92.0986"/><polygon fill="#181818" points="334.6758,82.0986,338.6758,92.0986,342.6758,82.0986,338.6758,86.0986" style="stroke:#181818;stroke-width:1;stroke-linejoin:miter;stroke-miterlimit:10;"/><line style="stroke:#181818;stroke-width:1;" x1="338.6758" x2="338.6758" y1="125.8975" y2="145.8975"/><polygon fill="#181818" points="334.6758,135.8975,338.6758,145.8975,342.6758,135.8975,338.6758,139.8975" style="stroke:#181818;stroke-width:1;stroke-linejoin:miter;stroke-miterlimit:10;"/><line style="stroke:#181818;stroke-width:1;" x1="338.6758" x2="338.6758" y1="179.6963" y2="199.6963"/><polygon fill="#181818" points="334.6758,189.6963,338.6758,199.6963,342.6758,189.6963,338.6758,193.6963" style="stroke:#181818;stroke-width:1;stroke-linejoin:miter;stroke-miterlimit:10;"/><line style="stroke:#181818;stroke-width:1;" x1="338.6758" x2="338.6758" y1="233.4951" y2="253.4951"/><polygon fill="#181818" points="334.6758,243.4951,338.6758,253.4951,342.6758,243.4951,338.6758,247.4951" style="stroke:#181818;stroke-width:1;stroke-linejoin:miter;stroke-miterlimit:10;"/><line style="stroke:#181818;stroke-width:1;" x1="338.6758" x2="338.6758" y1="301.0928" y2="321.0928"/><polygon fill="#181818" points="334.6758,311.0928,338.6758,321.0928,342.6758,311.0928,338.6758,315.0928" style="stroke:#181818;stroke-width:1;stroke-linejoin:miter;stroke-miterlimit:10;"/><line style="stroke:#181818;stroke-width:1;" x1="443.5532" x2="443.5532" y1="442.6904" y2="476.4893"/><polygon fill="#181818" points="439.5532,466.4893,443.5532,476.4893,447.5532,466.4893,443.5532,470.4893" style="stroke:#181818;stroke-width:1;stroke-linejoin:miter;stroke-miterlimit:10;"/><line style="stroke:#181818;stroke-width:1;" x1="265.217" x2="233.7983" y1="386.8916" y2="386.8916"/><line style="stroke:#181818;stroke-width:1;" x1="233.7983" x2="233.7983" y1="386.8916" y2="408.8916"/><polygon fill="#181818" points="229.7983,398.8916,233.7983,408.8916,237.7983,398.8916,233.7983,402.8916" style="stroke:#181818;stroke-width:1;stroke-linejoin:miter;stroke-miterlimit:10;"/><line style="stroke:#181818;stroke-width:1;" x1="412.1345" x2="443.5532" y1="386.8916" y2="386.8916"/><line style="stroke:#181818;stroke-width:1;" x1="443.5532" x2="443.5532" y1="386.8916" y2="408.8916"/><polygon fill="#181818" points="439.5532,398.8916,443.5532,408.8916,447.5532,398.8916,443.5532,402.8916" style="stroke:#181818;stroke-width:1;stroke-linejoin:miter;stroke-miterlimit:10;"/><line style="stroke:#181818;stroke-width:1;" x1="233.7983" x2="233.7983" y1="456.4893" y2="542.0869"/><line style="stroke:#181818;stroke-width:1;" x1="233.7983" x2="326.6758" y1="542.0869" y2="542.0869"/><polygon fill="#181818" points="316.6758,538.0869,326.6758,542.0869,316.6758,546.0869,320.6758,542.0869" style="stroke:#181818;stroke-width:1;stroke-linejoin:miter;stroke-miterlimit:10;"/><line style="stroke:#181818;stroke-width:1;" x1="443.5532" x2="443.5532" y1="524.0869" y2="542.0869"/><line style="stroke:#181818;stroke-width:1;" x1="443.5532" x2="350.6758" y1="542.0869" y2="542.0869"/><polygon fill="#181818" points="360.6758,538.0869,350.6758,542.0869,360.6758,546.0869,356.6758,542.0869" style="stroke:#181818;stroke-width:1;stroke-linejoin:miter;stroke-miterlimit:10;"/><line style="stroke:#181818;stroke-width:1;" x1="338.6758" x2="338.6758" y1="354.8916" y2="374.8916"/><polygon fill="#181818" points="334.6758,364.8916,338.6758,374.8916,342.6758,364.8916,338.6758,368.8916" style="stroke:#181818;stroke-width:1;stroke-linejoin:miter;stroke-miterlimit:10;"/><line style="stroke:#181818;stroke-width:1;" x1="338.6758" x2="338.6758" y1="554.0869" y2="574.0869"/><polygon fill="#181818" points="334.6758,564.0869,338.6758,574.0869,342.6758,564.0869,338.6758,568.0869" style="stroke:#181818;stroke-width:1;stroke-linejoin:miter;stroke-miterlimit:10;"/><line style="stroke:#181818;stroke-width:1;" x1="338.6758" x2="338.6758" y1="607.8857" y2="627.8857"/><polygon fill="#181818" points="334.6758,617.8857,338.6758,627.8857,342.6758,617.8857,338.6758,621.8857" style="stroke:#181818;stroke-width:1;stroke-linejoin:miter;stroke-miterlimit:10;"/><line style="stroke:#181818;stroke-width:1;" x1="435.8774" x2="435.8774" y1="749.4834" y2="769.4834"/><polygon fill="#181818" points="431.8774,759.4834,435.8774,769.4834,439.8774,759.4834,435.8774,763.4834" style="stroke:#181818;stroke-width:1;stroke-linejoin:miter;stroke-miterlimit:10;"/><line style="stroke:#181818;stroke-width:1;" x1="273.4885" x2="241.4741" y1="693.6846" y2="693.6846"/><line style="stroke:#181818;stroke-width:1;" x1="241.4741" x2="241.4741" y1="693.6846" y2="715.6846"/><polygon fill="#181818" points="237.4741,705.6846,241.4741,715.6846,245.4741,705.6846,241.4741,709.6846" style="stroke:#181818;stroke-width:1;stroke-linejoin:miter;stroke-miterlimit:10;"/><line style="stroke:#181818;stroke-width:1;" x1="403.863" x2="435.8774" y1="693.6846" y2="693.6846"/><line style="stroke:#181818;stroke-width:1;" x1="435.8774" x2="435.8774" y1="693.6846" y2="715.6846"/><polygon fill="#181818" points="431.8774,705.6846,435.8774,715.6846,439.8774,705.6846,435.8774,709.6846" style="stroke:#181818;stroke-width:1;stroke-linejoin:miter;stroke-miterlimit:10;"/><line style="stroke:#181818;stroke-width:1;" x1="241.4741" x2="241.4741" y1="749.4834" y2="796.4834"/><line style="stroke:#181818;stroke-width:1;" x1="241.4741" x2="338.6758" y1="796.4834" y2="796.4834"/><line style="stroke:#181818;stroke-width:1;" x1="338.6758" x2="338.6758" y1="796.4834" y2="811.4834"/><polygon fill="#181818" points="334.6758,801.4834,338.6758,811.4834,342.6758,801.4834,338.6758,805.4834" style="stroke:#181818;stroke-width:1;stroke-linejoin:miter;stroke-miterlimit:10;"/><line style="stroke:#181818;stroke-width:1;" x1="338.6758" x2="338.6758" y1="661.6846" y2="681.6846"/><polygon fill="#181818" points="334.6758,671.6846,338.6758,681.6846,342.6758,671.6846,338.6758,675.6846" style="stroke:#181818;stroke-width:1;stroke-linejoin:miter;stroke-miterlimit:10;"/><line style="stroke:#181818;stroke-width:1;" x1="338.6758" x2="338.6758" y1="845.2822" y2="865.2822"/><polygon fill="#181818" points="334.6758,855.2822,338.6758,865.2822,342.6758,855.2822,338.6758,859.2822" style="stroke:#181818;stroke-width:1;stroke-linejoin:miter;stroke-miterlimit:10;"/><line style="stroke:#181818;stroke-width:1;" x1="338.6758" x2="338.6758" y1="899.0811" y2="919.0811"/><polygon fill="#181818" points="334.6758,909.0811,338.6758,919.0811,342.6758,909.0811,338.6758,913.0811" style="stroke:#181818;stroke-width:1;stroke-linejoin:miter;stroke-miterlimit:10;"/><line style="stroke:#181818;stroke-width:1;" x1="338.6758" x2="338.6758" y1="952.8799" y2="972.8799"/><polygon fill="#181818" points="334.6758,962.8799,338.6758,972.8799,342.6758,962.8799,338.6758,966.8799" style="stroke:#181818;stroke-width:1;stroke-linejoin:miter;stroke-miterlimit:10;"/><line style="stroke:#181818;stroke-width:1;" x1="338.6758" x2="338.6758" y1="1006.6787" y2="1026.6787"/><polygon fill="#181818" points="334.6758,1016.6787,338.6758,1026.6787,342.6758,1016.6787,338.6758,1020.6787" style="stroke:#181818;stroke-width:1;stroke-linejoin:miter;stroke-miterlimit:10;"/><line style="stroke:#181818;stroke-width:1;" x1="338.6758" x2="338.6758" y1="1060.4775" y2="1080.4775"/><polygon fill="#181818" points="334.6758,1070.4775,338.6758,1080.4775,342.6758,1070.4775,338.6758,1074.4775" style="stroke:#181818;stroke-width:1;stroke-linejoin:miter;stroke-miterlimit:10;"/><line style="stroke:#181818;stroke-width:1;" x1="338.6758" x2="338.6758" y1="1128.0752" y2="1148.0752"/><polygon fill="#181818" points="334.6758,1138.0752,338.6758,1148.0752,342.6758,1138.0752,338.6758,1142.0752" style="stroke:#181818;stroke-width:1;stroke-linejoin:miter;stroke-miterlimit:10;"/><line style="stroke:#181818;stroke-width:1;" x1="338.6758" x2="338.6758" y1="1181.874" y2="1201.874"/><polygon fill="#181818" points="334.6758,1191.874,338.6758,1201.874,342.6758,1191.874,338.6758,1195.874" style="stroke:#181818;stroke-width:1;stroke-linejoin:miter;stroke-miterlimit:10;"/><line style="stroke:#181818;stroke-width:1;" x1="338.6758" x2="338.6758" y1="1333.4717" y2="1353.4717"/><polygon fill="#181818" points="334.6758,1343.4717,338.6758,1353.4717,342.6758,1343.4717,338.6758,1347.4717" style="stroke:#181818;stroke-width:1;stroke-linejoin:miter;stroke-miterlimit:10;"/><line style="stroke:#181818;stroke-width:1;" x1="338.6758" x2="338.6758" y1="1401.0693" y2="1421.0693"/><polygon fill="#181818" points="334.6758,1411.0693,338.6758,1421.0693,342.6758,1411.0693,338.6758,1415.0693" style="stroke:#181818;stroke-width:1;stroke-linejoin:miter;stroke-miterlimit:10;"/><line style="stroke:#181818;stroke-width:1;" x1="338.6758" x2="338.6758" y1="1454.8682" y2="1474.8682"/><polygon fill="#181818" points="334.6758,1464.8682,338.6758,1474.8682,342.6758,1464.8682,338.6758,1468.8682" style="stroke:#181818;stroke-width:1;stroke-linejoin:miter;stroke-miterlimit:10;"/><line style="stroke:#181818;stroke-width:1;" x1="228.2935" x2="228.2935" y1="1610.2646" y2="1630.2646"/><polygon fill="#181818" points="224.2935,1620.2646,228.2935,1630.2646,232.2935,1620.2646,228.2935,1624.2646" style="stroke:#181818;stroke-width:1;stroke-linejoin:miter;stroke-miterlimit:10;"/><line style="stroke:#181818;stroke-width:1;" x1="228.2935" x2="228.2935" y1="1664.0635" y2="1684.0635"/><polygon fill="#181818" points="224.2935,1674.0635,228.2935,1684.0635,232.2935,1674.0635,228.2935,1678.0635" style="stroke:#181818;stroke-width:1;stroke-linejoin:miter;stroke-miterlimit:10;"/><line style="stroke:#181818;stroke-width:1;" x1="228.2935" x2="228.2935" y1="1731.6611" y2="1751.6611"/><polygon fill="#181818" points="224.2935,1741.6611,228.2935,1751.6611,232.2935,1741.6611,228.2935,1745.6611" style="stroke:#181818;stroke-width:1;stroke-linejoin:miter;stroke-miterlimit:10;"/><line style="stroke:#181818;stroke-width:1;" x1="228.2935" x2="228.2935" y1="1785.46" y2="1805.46"/><polygon fill="#181818" points="224.2935,1795.46,228.2935,1805.46,232.2935,1795.46,228.2935,1799.46" style="stroke:#181818;stroke-width:1;stroke-linejoin:miter;stroke-miterlimit:10;"/><line style="stroke:#181818;stroke-width:1;" x1="228.2935" x2="228.2935" y1="1853.0576" y2="1873.0576"/><polygon fill="#181818" points="224.2935,1863.0576,228.2935,1873.0576,232.2935,1863.0576,228.2935,1867.0576" style="stroke:#181818;stroke-width:1;stroke-linejoin:miter;stroke-miterlimit:10;"/><line style="stroke:#181818;stroke-width:1;" x1="228.2935" x2="228.2935" y1="1920.6553" y2="1940.6553"/><polygon fill="#181818" points="224.2935,1930.6553,228.2935,1940.6553,232.2935,1930.6553,228.2935,1934.6553" style="stroke:#181818;stroke-width:1;stroke-linejoin:miter;stroke-miterlimit:10;"/><line style="stroke:#181818;stroke-width:1;" x1="258.2104" x2="228.2935" y1="1554.4658" y2="1554.4658"/><line style="stroke:#181818;stroke-width:1;" x1="228.2935" x2="228.2935" y1="1554.4658" y2="1576.4658"/><polygon fill="#181818" points="224.2935,1566.4658,228.2935,1576.4658,232.2935,1566.4658,228.2935,1570.4658" style="stroke:#181818;stroke-width:1;stroke-linejoin:miter;stroke-miterlimit:10;"/><line style="stroke:#181818;stroke-width:1;" x1="419.1411" x2="449.0581" y1="1554.4658" y2="1554.4658"/><line style="stroke:#181818;stroke-width:1;" x1="449.0581" x2="449.0581" y1="1554.4658" y2="1576.4658"/><polygon fill="#181818" points="445.0581,1566.4658,449.0581,1576.4658,453.0581,1566.4658,449.0581,1570.4658" style="stroke:#181818;stroke-width:1;stroke-linejoin:miter;stroke-miterlimit:10;"/><line style="stroke:#181818;stroke-width:1;" x1="228.2935" x2="228.2935" y1="1974.4541" y2="1992.4541"/><line style="stroke:#181818;stroke-width:1;" x1="228.2935" x2="326.6758" y1="1992.4541" y2="1992.4541"/><polygon fill="#181818" points="316.6758,1988.4541,326.6758,1992.4541,316.6758,1996.4541,320.6758,1992.4541" style="stroke:#181818;stroke-width:1;stroke-linejoin:miter;stroke-miterlimit:10;"/><line style="stroke:#181818;stroke-width:1;" x1="449.0581" x2="449.0581" y1="1610.2646" y2="1992.4541"/><line style="stroke:#181818;stroke-width:1;" x1="449.0581" x2="350.6758" y1="1992.4541" y2="1992.4541"/><polygon fill="#181818" points="360.6758,1988.4541,350.6758,1992.4541,360.6758,1996.4541,356.6758,1992.4541" style="stroke:#181818;stroke-width:1;stroke-linejoin:miter;stroke-miterlimit:10;"/><line style="stroke:#181818;stroke-width:1;" x1="338.6758" x2="338.6758" y1="1522.4658" y2="1542.4658"/><polygon fill="#181818" points="334.6758,1532.4658,338.6758,1542.4658,342.6758,1532.4658,338.6758,1536.4658" style="stroke:#181818;stroke-width:1;stroke-linejoin:miter;stroke-miterlimit:10;"/><line style="stroke:#181818;stroke-width:1;" x1="338.6758" x2="338.6758" y1="2116.2549" y2="2136.2549"/><polygon fill="#181818" points="334.6758,2126.2549,338.6758,2136.2549,342.6758,2126.2549,338.6758,2130.2549" style="stroke:#181818;stroke-width:1;stroke-linejoin:miter;stroke-miterlimit:10;"/><line style="stroke:#181818;stroke-width:1;" x1="338.6758" x2="338.6758" y1="2170.0537" y2="2205.0537"/><polygon fill="#181818" points="334.6758,2195.0537,338.6758,2205.0537,342.6758,2195.0537,338.6758,2199.0537" style="stroke:#181818;stroke-width:1;stroke-linejoin:miter;stroke-miterlimit:10;"/><line style="stroke:#181818;stroke-width:1;" x1="338.6758" x2="338.6758" y1="2238.8525" y2="2258.8525"/><polygon fill="#181818" points="334.6758,2248.8525,338.6758,2258.8525,342.6758,2248.8525,338.6758,2252.8525" style="stroke:#181818;stroke-width:1;stroke-linejoin:miter;stroke-miterlimit:10;"/><line style="stroke:#181818;stroke-width:1;" x1="338.6758" x2="338.6758" y1="2058.1316" y2="2082.4561"/><polygon fill="#181818" points="334.6758,2072.4561,338.6758,2082.4561,342.6758,2072.4561,338.6758,2076.4561" style="stroke:#181818;stroke-width:1;stroke-linejoin:miter;stroke-miterlimit:10;"/><line style="stroke:#181818;stroke-width:1;" x1="435.6707" x2="454.4033" y1="2046.1316" y2="2046.1316"/><polygon fill="#181818" points="450.4033,2177.5537,454.4033,2187.5537,458.4033,2177.5537,454.4033,2181.5537" style="stroke:#181818;stroke-width:1;stroke-linejoin:miter;stroke-miterlimit:10;"/><line style="stroke:#181818;stroke-width:1;" x1="454.4033" x2="454.4033" y1="2046.1316" y2="2324.6514"/><line style="stroke:#181818;stroke-width:1;" x1="454.4033" x2="350.6758" y1="2324.6514" y2="2324.6514"/><polygon fill="#181818" points="360.6758,2320.6514,350.6758,2324.6514,360.6758,2328.6514,356.6758,2324.6514" style="stroke:#181818;stroke-width:1;stroke-linejoin:miter;stroke-miterlimit:10;"/><line style="stroke:#181818;stroke-width:1;" x1="338.6758" x2="338.6758" y1="2292.6514" y2="2312.6514"/><polygon fill="#181818" points="334.6758,2302.6514,338.6758,2312.6514,342.6758,2302.6514,338.6758,2306.6514" style="stroke:#181818;stroke-width:1;stroke-linejoin:miter;stroke-miterlimit:10;"/><line style="stroke:#181818;stroke-width:1;" x1="338.6758" x2="338.6758" y1="2004.4541" y2="2034.1316"/><polygon fill="#181818" points="334.6758,2024.1316,338.6758,2034.1316,342.6758,2024.1316,338.6758,2028.1316" style="stroke:#181818;stroke-width:1;stroke-linejoin:miter;stroke-miterlimit:10;"/><line style="stroke:#181818;stroke-width:1;" x1="338.6758" x2="338.6758" y1="2438.7747" y2="2458.7747"/><polygon fill="#181818" points="334.6758,2448.7747,338.6758,2458.7747,342.6758,2448.7747,338.6758,2452.7747" style="stroke:#181818;stroke-width:1;stroke-linejoin:miter;stroke-miterlimit:10;"/><line style="stroke:#181818;stroke-width:1;" x1="338.6758" x2="338.6758" y1="2506.3723" y2="2526.3723"/><polygon fill="#181818" points="334.6758,2516.3723,338.6758,2526.3723,342.6758,2516.3723,338.6758,2520.3723" style="stroke:#181818;stroke-width:1;stroke-linejoin:miter;stroke-miterlimit:10;"/><line style="stroke:#181818;stroke-width:1;" x1="338.6758" x2="338.6758" y1="2380.6514" y2="2404.9758"/><polygon fill="#181818" points="334.6758,2394.9758,338.6758,2404.9758,342.6758,2394.9758,338.6758,2398.9758" style="stroke:#181818;stroke-width:1;stroke-linejoin:miter;stroke-miterlimit:10;"/><line style="stroke:#181818;stroke-width:1;" x1="406.3203" x2="482.3936" y1="2368.6514" y2="2368.6514"/><polygon fill="#181818" points="478.3936,2472.5735,482.3936,2482.5735,486.3936,2472.5735,482.3936,2476.5735" style="stroke:#181818;stroke-width:1;stroke-linejoin:miter;stroke-miterlimit:10;"/><line style="stroke:#181818;stroke-width:1;" x1="482.3936" x2="482.3936" y1="2368.6514" y2="2592.1711"/><line style="stroke:#181818;stroke-width:1;" x1="482.3936" x2="350.6758" y1="2592.1711" y2="2592.1711"/><polygon fill="#181818" points="360.6758,2588.1711,350.6758,2592.1711,360.6758,2596.1711,356.6758,2592.1711" style="stroke:#181818;stroke-width:1;stroke-linejoin:miter;stroke-miterlimit:10;"/><line style="stroke:#181818;stroke-width:1;" x1="338.6758" x2="338.6758" y1="2560.1711" y2="2580.1711"/><polygon fill="#181818" points="334.6758,2570.1711,338.6758,2580.1711,342.6758,2570.1711,338.6758,2574.1711" style="stroke:#181818;stroke-width:1;stroke-linejoin:miter;stroke-miterlimit:10;"/><line style="stroke:#181818;stroke-width:1;" x1="338.6758" x2="338.6758" y1="2336.6514" y2="2356.6514"/><polygon fill="#181818" points="334.6758,2346.6514,338.6758,2356.6514,342.6758,2346.6514,338.6758,2350.6514" style="stroke:#181818;stroke-width:1;stroke-linejoin:miter;stroke-miterlimit:10;"/><line style="stroke:#181818;stroke-width:1;" x1="338.6758" x2="338.6758" y1="2648.1711" y2="2672.4956"/><polygon fill="#181818" points="334.6758,2662.4956,338.6758,2672.4956,342.6758,2662.4956,338.6758,2666.4956" style="stroke:#181818;stroke-width:1;stroke-linejoin:miter;stroke-miterlimit:10;"/><line style="stroke:#181818;stroke-width:1;" x1="423.4326" x2="435.4326" y1="2636.1711" y2="2636.1711"/><polygon fill="#181818" points="431.4326,2679.395,435.4326,2689.395,439.4326,2679.395,435.4326,2683.395" style="stroke:#181818;stroke-width:1;stroke-linejoin:miter;stroke-miterlimit:10;"/><line style="stroke:#181818;stroke-width:1;" x1="435.4326" x2="435.4326" y1="2636.1711" y2="2738.2944"/><line style="stroke:#181818;stroke-width:1;" x1="435.4326" x2="350.6758" y1="2738.2944" y2="2738.2944"/><polygon fill="#181818" points="360.6758,2734.2944,350.6758,2738.2944,360.6758,2742.2944,356.6758,2738.2944" style="stroke:#181818;stroke-width:1;stroke-linejoin:miter;stroke-miterlimit:10;"/><line style="stroke:#181818;stroke-width:1;" x1="338.6758" x2="338.6758" y1="2706.2944" y2="2726.2944"/><polygon fill="#181818" points="334.6758,2716.2944,338.6758,2726.2944,342.6758,2716.2944,338.6758,2720.2944" style="stroke:#181818;stroke-width:1;stroke-linejoin:miter;stroke-miterlimit:10;"/><line style="stroke:#181818;stroke-width:1;" x1="338.6758" x2="338.6758" y1="2604.1711" y2="2624.1711"/><polygon fill="#181818" points="334.6758,2614.1711,338.6758,2624.1711,342.6758,2614.1711,338.6758,2618.1711" style="stroke:#181818;stroke-width:1;stroke-linejoin:miter;stroke-miterlimit:10;"/><line style="stroke:#181818;stroke-width:1;" x1="338.6758" x2="338.6758" y1="1279.6729" y2="1299.6729"/><polygon fill="#181818" points="334.6758,1289.6729,338.6758,1299.6729,342.6758,1289.6729,338.6758,1293.6729" style="stroke:#181818;stroke-width:1;stroke-linejoin:miter;stroke-miterlimit:10;"/><line style="stroke:#181818;stroke-width:1;" x1="406.0115" x2="539.7661" y1="2782.2944" y2="2782.2944"/><polygon fill="#181818" points="535.7661,2014.1316,539.7661,2004.1316,543.7661,2014.1316,539.7661,2010.1316" style="stroke:#181818;stroke-width:1;stroke-linejoin:miter;stroke-miterlimit:10;"/><line style="stroke:#181818;stroke-width:1;" x1="539.7661" x2="539.7661" y1="1267.6729" y2="2782.2944"/><line style="stroke:#181818;stroke-width:1;" x1="539.7661" x2="350.6758" y1="1267.6729" y2="1267.6729"/><polygon fill="#181818" points="360.6758,1263.6729,350.6758,1267.6729,360.6758,1271.6729,356.6758,1267.6729" style="stroke:#181818;stroke-width:1;stroke-linejoin:miter;stroke-miterlimit:10;"/><line style="stroke:#181818;stroke-width:1;" x1="338.6758" x2="338.6758" y1="2750.2944" y2="2770.2944"/><polygon fill="#181818" points="334.6758,2760.2944,338.6758,2770.2944,342.6758,2760.2944,338.6758,2764.2944" style="stroke:#181818;stroke-width:1;stroke-linejoin:miter;stroke-miterlimit:10;"/><line style="stroke:#181818;stroke-width:1;" x1="338.6758" x2="338.6758" y1="1235.6729" y2="1255.6729"/><polygon fill="#181818" points="334.6758,1245.6729,338.6758,1255.6729,342.6758,1245.6729,338.6758,1249.6729" style="stroke:#181818;stroke-width:1;stroke-linejoin:miter;stroke-miterlimit:10;"/><line style="stroke:#181818;stroke-width:1;" x1="338.6758" x2="338.6758" y1="2794.2944" y2="2826.1123"/><polygon fill="#181818" points="334.6758,2816.1123,338.6758,2826.1123,342.6758,2816.1123,338.6758,2820.1123" style="stroke:#181818;stroke-width:1;stroke-linejoin:miter;stroke-miterlimit:10;"/><g class="caption" data-source-line="2"><text fill="#000000" font-family="Arial" font-size="14" lengthAdjust="spacing" textLength="631.8457" x="11" y="2871.2441">Logika firmware Pico 2 W: start, synchronizacja, nasluch, health report i obsluga wykrytego zdarzenia.</text></g><?plantuml-src bLRRRjj647tNLmpG5mUGwyPecjH-A7o90IDjOjHr1HHw6P4ZQitbBh6N46IGV-_P9MNBijEB7YnZPtOkPywSLL112rseqDDPB9MbtwnHmJew96qhLJD5Dt0vY55CqgoaBAMS5Tm6PGtzEhgibMiwTa8tgh1qJ8iJye5Tc9FlJR5n23bmSSzpCknrB3PpsWZhi24dhNM15DaL31LJrzUk3r9P6afsEUttivclbMdPSKChBkhAsMZA2wjHvdTN-RFZuJTSsawPYjQilUnOIbbprE7Acl2H6w4pfrZlsBa8wdD2uikCwFnPehTNPrSNoM9TAMuwFNx_umzltkBqKd5ZJNd-Gdtlth_PSTYz_UxifylNbp3U9hZsGxv_238TVGKIoN4sExas2e3g4LUWdKQdg7Osr4h8jdOm2k39E0ZRoUdivCu1UjkCvot-OHTfOAyqf-bUVpmxVlqp_6vRnrqUkL1jZRTQqTtjEIoBOkW3J-ThLKM7z6g78akpK8TNQaxNbpkdS-BIYISlhXF7zEVDxPnQ1_8G9z8Xyk_Y9M3wlbCID1S3s7ROSYlkT3PJQphuy9YGQJ2iPG03-PTN53PYw21m_GgOdIpw5H0Bhbz5fE2YNnfZNSFQz7H4fUBAM1_wOZ3zwKn043f0F_dgZQrvoDsjj9GHPDqjADArgN4dEI8kK-XrRQdBkHBcbSFTOh2cRvP6nzNJP0socLAjdytkmQjMmE4chZHMAXaqoj4chG9c6AAFvA89gf49aJqAA2aKVVhm390RcwhFmnmeJmVVhJNOaJIRHkt3y0deJXT677BerBWFjdteOfpOOv63LDYYq_tsQeqqWPygWI8CsCTlEZjEic2xIIOIBXOtGcsxlKWyHa9BIHbGcpHfRc1O8hnlHxAFRNTKY8va_O3soY6JNeouIgbdbMHUBasZi59hADtrCIXRMottq3jGToNr788If4vYEMaLeko0jxqRwPv15Av3toMaCBwJXTpx0ZwbfHRqKbHf2-CzR914uP0dbuWtMdPbE5Fmh0xneTY95nDFbcR5GLnQksaPjvKyTZ2jNQR7ocNEjmpbI9Xd6m0TVTMOpkHaqxZJ32gSnAL1hG2Y4KPmOnLujDRMfgKbIYHTP3stL7KO91hfgHn0l7gVfiZn5xTWeupwCaxrxe-BntVWTEi64UkcaY7R4XoApgC0iIQdJoM6K6SdMwFU5Wjsc5wjw0I2W2VBSTM0Quz8lBWgMuCR-ig6AIr40Qklq7NWaarVR1wBN9eZRjLHAPzL8VxeYog_7ldq71pAPwJp_nXmMrJSqkzUFBY1lm5CyK5Qqqy1db8x7JvPOdX0C4DlOYR8zEp6x3VkxpYU2y1C6H-JMVPaj-I58NqReYsFzlOnFgnZTdl2s-VYyQtUNgfv58b98lvFgOlUwrpg626clJ5nPst6b_2_hC-_Ltlkk8PW318wwzBZ0BQC-l52oRTQfCKFgCO_nXdrWBgDmW-rWxkj380rgJrhqfIK7wDW1SF4WLaMwxy1?></g></svg>