<svg xmlns="http://www.w3.org/2000/svg" xmlns:xlink="http://www.w3.org/1999/xlink" contentStyleType="text/css" data-diagram-type="ACTIVITY" height="1523px" preserveAspectRatio="none" style="width:1904px;height:1523px;background:#FFFFFF;" version="1.1" viewBox="0 0 1904 1523" width="1904px" zoomAndPan="magnify"><?plantuml 1.2026.4?><defs/><g><g class="title" data-source-line="1"><text fill="#000000" font-family="Arial" font-size="14" font-weight="700" lengthAdjust="spacing" textLength="247.3379" x="827.7617" y="33.1318">City Audio Monitor - logika backendu</text></g><ellipse cx="950.4307" cy="62.0986" fill="#2E4057" rx="10" ry="10" style="stroke:#222222;stroke-width:1;"/><rect fill="none" height="211.6963" style="stroke:#000000;stroke-width:1.5;" width="411.502" x="735.5054" y="82.0986"/><path d="M820.981,82.0986 L820.981,91.1973 L810.981,101.1973 L735.5054,101.1973" fill="none" style="stroke:#000000;stroke-width:1.5;"/><text fill="#000000" font-family="Arial" font-size="14" lengthAdjust="spacing" textLength="75.4756" x="738.5054" y="96.2305">VPS / Nginx</text><rect fill="#F7FAFC" height="33.7988" rx="12.5" ry="12.5" style="stroke:#2E4057;stroke-width:0.5;" width="191.3809" x="854.7402" y="118.1973"/><text fill="#000000" font-family="Arial" font-size="12" lengthAdjust="spacing" textLength="171.3809" x="864.7402" y="139.4531">Przyjecie zadania HTTP/HTTPS</text><polygon fill="#FFF8E5" points="879.8088,171.9961,1021.0525,171.9961,1033.0525,183.9961,1021.0525,195.9961,879.8088,195.9961,867.8088,183.9961,879.8088,171.9961" style="stroke:#8A6D1D;stroke-width:0.5;stroke-linejoin:miter;stroke-miterlimit:10;"/><text fill="#000000" font-family="Arial" font-size="11" lengthAdjust="spacing" textLength="141.2437" x="879.8088" y="187.9895">Sciezka zaczyna sie od /api?</text><text fill="#000000" font-family="Arial" font-size="11" lengthAdjust="spacing" textLength="14.6738" x="853.135" y="181.665">tak</text><text fill="#000000" font-family="Arial" font-size="11" lengthAdjust="spacing" textLength="14.6792" x="1033.0525" y="181.665">nie</text><rect fill="#F7FAFC" height="33.7988" rx="12.5" ry="12.5" style="stroke:#2E4057;stroke-width:0.5;" width="194.0996" x="755.5054" y="205.9961"/><text fill="#000000" font-family="Arial" font-size="12" lengthAdjust="spacing" textLength="174.0996" x="765.5054" y="227.252">Przekazanie zadania do FastAPI</text><rect fill="#F7FAFC" height="33.7988" rx="12.5" ry="12.5" style="stroke:#2E4057;stroke-width:0.5;" width="157.4023" x="969.605" y="205.9961"/><text fill="#000000" font-family="Arial" font-size="12" lengthAdjust="spacing" textLength="137.4023" x="979.605" y="227.252">Zwrocenie frontend React</text><ellipse cx="1048.3062" cy="270.7949" fill="none" rx="11" ry="11" style="stroke:#222222;stroke-width:1;"/><ellipse cx="1048.3062" cy="270.7949" fill="#222222" rx="6" ry="6" style="stroke:#222222;stroke-width:1;"/><rect fill="none" height="846.1968" style="stroke:#000000;stroke-width:1.5;" width="1868.8613" x="16" y="303.7949"/><path d="M132.6133,303.7949 L132.6133,312.8936 L122.6133,322.8936 L16,322.8936" fill="none" style="stroke:#000000;stroke-width:1.5;"/><text fill="#000000" font-family="Arial" font-size="14" lengthAdjust="spacing" textLength="106.6133" x="19" y="317.9268">FastAPI backend</text><rect fill="#F7FAFC" height="33.7988" rx="12.5" ry="12.5" style="stroke:#2E4057;stroke-width:0.5;" width="241.4375" x="829.7119" y="339.8936"/><text fill="#000000" font-family="Arial" font-size="12" lengthAdjust="spacing" textLength="221.4375" x="839.7119" y="361.1494">Walidacja requestu i schematow Pydantic</text><polygon fill="#FFF8E5" points="81.4692,393.6924,179.3198,393.6924,191.3198,405.6924,179.3198,417.6924,81.4692,417.6924,69.4692,405.6924,81.4692,393.6924" style="stroke:#8A6D1D;stroke-width:0.5;stroke-linejoin:miter;stroke-miterlimit:10;"/><text fill="#000000" font-family="Arial" font-size="11" lengthAdjust="spacing" textLength="37.2969" x="134.3945" y="428.0103">devices</text><text fill="#000000" font-family="Arial" font-size="11" lengthAdjust="spacing" textLength="97.8506" x="81.4692" y="409.6858">Endpoint urzadzen?</text><rect fill="#F7FAFC" height="47.5977" rx="12.5" ry="12.5" style="stroke:#2E4057;stroke-width:0.5;" width="190.7422" x="35.0234" y="449.5103"/><text fill="#000000" font-family="Arial" font-size="12" lengthAdjust="spacing" textLength="170.7422" x="45.0234" y="470.7661">Rejestracja, odczyt, aktualizacja</text><text fill="#000000" font-family="Arial" font-size="12" lengthAdjust="spacing" textLength="132.0879" x="45.0234" y="484.5649">lub usuniecie urzadzenia</text><rect fill="#F7FAFC" height="33.7988" rx="12.5" ry="12.5" style="stroke:#2E4057;stroke-width:0.5;" width="164.0469" x="48.3711" y="530.9067"/><text fill="#000000" font-family="Arial" font-size="12" lengthAdjust="spacing" textLength="144.0469" x="58.3711" y="552.1626">Zapis lokalizacji w PostGIS</text><rect fill="#F7FAFC" height="47.5977" rx="12.5" ry="12.5" style="stroke:#2E4057;stroke-width:0.5;" width="208.7891" x="26" y="598.5044"/><text fill="#000000" font-family="Arial" font-size="12" lengthAdjust="spacing" textLength="188.7891" x="36" y="619.7603">Dolaczenie ostatniego health report</text><text fill="#000000" font-family="Arial" font-size="12" lengthAdjust="spacing" textLength="164.0742" x="36" y="633.5591">i ostatniej synchronizacji czasu</text><polygon fill="#FFF8E5" points="296.9224,393.6924,409.4253,393.6924,421.4253,405.6924,409.4253,417.6924,296.9224,417.6924,284.9224,405.6924,296.9224,393.6924" style="stroke:#8A6D1D;stroke-width:0.5;stroke-linejoin:miter;stroke-miterlimit:10;"/><text fill="#000000" font-family="Arial" font-size="11" lengthAdjust="spacing" textLength="46.4546" x="357.1738" y="428.0103">time sync</text><text fill="#000000" font-family="Arial" font-size="11" lengthAdjust="spacing" textLength="112.5029" x="296.9224" y="409.6858">Synchronizacja czasu?</text><rect fill="#F7FAFC" height="33.7988" rx="12.5" ry="12.5" style="stroke:#2E4057;stroke-width:0.5;" width="216.7695" x="244.7891" y="449.5103"/><text fill="#000000" font-family="Arial" font-size="12" lengthAdjust="spacing" textLength="196.7695" x="254.7891" y="470.7661">Sprawdzenie, czy urzadzenie istnieje</text><rect fill="#F7FAFC" height="33.7988" rx="12.5" ry="12.5" style="stroke:#2E4057;stroke-width:0.5;" width="183.4063" x="261.4707" y="517.1079"/><text fill="#000000" font-family="Arial" font-size="12" lengthAdjust="spacing" textLength="163.4063" x="271.4707" y="538.3638">Zapis zdarzenia synchronizacji</text><rect fill="#F7FAFC" height="47.5977" rx="12.5" ry="12.5" style="stroke:#2E4057;stroke-width:0.5;" width="170.0352" x="268.1563" y="584.7056"/><text fill="#000000" font-family="Arial" font-size="12" lengthAdjust="spacing" textLength="150.0352" x="278.1563" y="605.9614">Zwrot timestampow serwera</text><text fill="#000000" font-family="Arial" font-size="12" lengthAdjust="spacing" textLength="124.0371" x="278.1563" y="619.7603">i strefy Europe/Warsaw</text><polygon fill="#FFF8E5" points="552.5115,393.6924,624.6721,393.6924,636.6721,405.6924,624.6721,417.6924,552.5115,417.6924,540.5115,405.6924,552.5115,393.6924" style="stroke:#8A6D1D;stroke-width:0.5;stroke-linejoin:miter;stroke-miterlimit:10;"/><text fill="#000000" font-family="Arial" font-size="11" lengthAdjust="spacing" textLength="29.9707" x="592.5918" y="428.0103">health</text><text fill="#000000" font-family="Arial" font-size="11" lengthAdjust="spacing" textLength="72.1606" x="552.5115" y="409.6858">Raport health?</text><rect fill="#F7FAFC" height="33.7988" rx="12.5" ry="12.5" style="stroke:#2E4057;stroke-width:0.5;" width="216.7695" x="480.207" y="449.5103"/><text fill="#000000" font-family="Arial" font-size="12" lengthAdjust="spacing" textLength="196.7695" x="490.207" y="470.7661">Sprawdzenie, czy urzadzenie istnieje</text><rect fill="#F7FAFC" height="47.5977" rx="12.5" ry="12.5" style="stroke:#2E4057;stroke-width:0.5;" width="234.0664" x="471.5586" y="517.1079"/><text fill="#000000" font-family="Arial" font-size="12" lengthAdjust="spacing" textLength="166.7168" x="481.5586" y="538.3638">Zapis firmware version, uptime,</text><text fill="#000000" font-family="Arial" font-size="12" lengthAdjust="spacing" textLength="214.0664" x="481.5586" y="552.1626">Wi-Fi, mikrofonu, INA219, napiec i mocy</text><rect fill="#F7FAFC" height="33.7988" rx="12.5" ry="12.5" style="stroke:#2E4057;stroke-width:0.5;" width="156.0723" x="510.5557" y="598.5044"/><text fill="#000000" font-family="Arial" font-size="12" lengthAdjust="spacing" textLength="136.0723" x="520.5557" y="619.7603">Zwrot zapisanego raportu</text><polygon fill="#FFF8E5" points="909.6431,393.6924,1051.4937,393.6924,1063.4937,405.6924,1051.4937,417.6924,909.6431,417.6924,897.6431,405.6924,909.6431,393.6924" style="stroke:#8A6D1D;stroke-width:0.5;stroke-linejoin:miter;stroke-miterlimit:10;"/><text fill="#000000" font-family="Arial" font-size="11" lengthAdjust="spacing" textLength="59.936" x="984.5684" y="428.0103">sound event</text><text fill="#000000" font-family="Arial" font-size="11" lengthAdjust="spacing" textLength="141.8506" x="909.6431" y="409.6858">Nowe zdarzenie dzwiekowe?</text><rect fill="#F7FAFC" height="33.7988" rx="12.5" ry="12.5" style="stroke:#2E4057;stroke-width:0.5;" width="216.7695" x="872.1836" y="449.5103"/><text fill="#000000" font-family="Arial" font-size="12" lengthAdjust="spacing" textLength="196.7695" x="882.1836" y="470.7661">Sprawdzenie, czy urzadzenie istnieje</text><rect fill="#F7FAFC" height="33.7988" rx="12.5" ry="12.5" style="stroke:#2E4057;stroke-width:0.5;" width="246.1016" x="857.5176" y="517.1079"/><text fill="#000000" font-family="Arial" font-size="12" lengthAdjust="spacing" textLength="226.1016" x="867.5176" y="538.3638">Utworzenie Peak z czasem event_time_ns</text><rect fill="#F7FAFC" height="33.7988" rx="12.5" ry="12.5" style="stroke:#2E4057;stroke-width:0.5;" width="270.793" x="845.1719" y="584.7056"/><text fill="#000000" font-family="Arial" font-size="12" lengthAdjust="spacing" textLength="250.793" x="855.1719" y="605.9614">Utworzenie SoundEvent z metadanymi detekcji</text><rect fill="#F7FAFC" height="33.7988" rx="12.5" ry="12.5" style="stroke:#2E4057;stroke-width:0.5;" width="218.1055" x="871.5156" y="653.5044"/><text fill="#000000" font-family="Arial" font-size="12" lengthAdjust="spacing" textLength="198.1055" x="881.5156" y="674.7603">Uruchomienie process_recent_peaks</text><polygon fill="#FFF8E5" points="893.7473,721.1021,1067.3894,721.1021,1079.3894,733.751,1067.3894,746.3999,893.7473,746.3999,881.7473,733.751,893.7473,721.1021" style="stroke:#8A6D1D;stroke-width:0.5;stroke-linejoin:miter;stroke-miterlimit:10;"/><text fill="#000000" font-family="Arial" font-size="11" lengthAdjust="spacing" textLength="110.6768" x="893.7473" y="731.4199">Sa co najmniej 3 peaki</text><text fill="#000000" font-family="Arial" font-size="11" lengthAdjust="spacing" textLength="173.6421" x="893.7473" y="744.0688">z roznych urzadzen w oknie czasu?</text><text fill="#000000" font-family="Arial" font-size="11" lengthAdjust="spacing" textLength="14.6738" x="867.0735" y="731.4199">tak</text><text fill="#000000" font-family="Arial" font-size="11" lengthAdjust="spacing" textLength="14.6792" x="1079.3894" y="731.4199">nie</text><rect fill="#F7FAFC" height="33.7988" rx="12.5" ry="12.5" style="stroke:#2E4057;stroke-width:0.5;" width="272.7793" x="715.625" y="756.3999"/><text fill="#000000" font-family="Arial" font-size="12" lengthAdjust="spacing" textLength="252.7793" x="725.625" y="777.6558">Pobranie wspolrzednych mikrofonow z PostGIS</text><rect fill="#F7FAFC" height="33.7988" rx="12.5" ry="12.5" style="stroke:#2E4057;stroke-width:0.5;" width="225.7402" x="739.1445" y="825.1987"/><text fill="#000000" font-family="Arial" font-size="12" lengthAdjust="spacing" textLength="205.7402" x="749.1445" y="846.4546">Konwersja WGS84 -&gt; uklad metryczny</text><rect fill="#F7FAFC" height="47.5977" rx="12.5" ry="12.5" style="stroke:#2E4057;stroke-width:0.5;" width="249.7871" x="727.1211" y="878.9976"/><text fill="#000000" font-family="Arial" font-size="12" lengthAdjust="spacing" textLength="102.0352" x="737.1211" y="900.2534">Triangulacja TDOA</text><text fill="#000000" font-family="Arial" font-size="12" lengthAdjust="spacing" textLength="229.7871" x="737.1211" y="914.0522">least_squares + predkosc dzwieku 343 m/s</text><rect fill="#F7FAFC" height="33.7988" rx="12.5" ry="12.5" style="stroke:#2E4057;stroke-width:0.5;" width="178.0684" x="762.9805" y="946.5952"/><text fill="#000000" font-family="Arial" font-size="12" lengthAdjust="spacing" textLength="158.0684" x="772.9805" y="967.8511">Konwersja wyniku do WGS84</text><rect fill="#F7FAFC" height="33.7988" rx="12.5" ry="12.5" style="stroke:#2E4057;stroke-width:0.5;" width="152.7383" x="775.6455" y="1000.394"/><text fill="#000000" font-family="Arial" font-size="12" lengthAdjust="spacing" textLength="132.7383" x="785.6455" y="1021.6499">Zapis SuspiciousIncident</text><rect fill="#F7FAFC" height="33.7988" rx="12.5" ry="12.5" style="stroke:#2E4057;stroke-width:0.5;" width="240.7813" x="731.624" y="1054.1929"/><text fill="#000000" font-family="Arial" font-size="12" lengthAdjust="spacing" textLength="220.7813" x="741.624" y="1075.4487">Oznaczenie peakow jako przetworzonych</text><rect fill="#F7FAFC" height="33.7988" rx="12.5" ry="12.5" style="stroke:#2E4057;stroke-width:0.5;" width="201.4355" x="1008.4043" y="756.3999"/><text fill="#000000" font-family="Arial" font-size="12" lengthAdjust="spacing" textLength="181.4355" x="1018.4043" y="777.6558">Oczekiwanie na kolejne zdarzenia</text><polygon fill="#FFF8E5" points="980.5684,1093.9917,992.5684,1105.9917,980.5684,1117.9917,968.5684,1105.9917,980.5684,1093.9917" style="stroke:#8A6D1D;stroke-width:0.5;stroke-linejoin:miter;stroke-miterlimit:10;"/><polygon fill="#FFF8E5" points="1283.2168,393.6924,1422.6504,393.6924,1434.6504,405.6924,1422.6504,417.6924,1283.2168,417.6924,1271.2168,405.6924,1283.2168,393.6924" style="stroke:#8A6D1D;stroke-width:0.5;stroke-linejoin:miter;stroke-miterlimit:10;"/><text fill="#000000" font-family="Arial" font-size="11" lengthAdjust="spacing" textLength="26.9146" x="1356.9336" y="428.0103">audio</text><text fill="#000000" font-family="Arial" font-size="11" lengthAdjust="spacing" textLength="139.4336" x="1283.2168" y="409.6858">Upload audio dla zdarzenia?</text><rect fill="#F7FAFC" height="33.7988" rx="12.5" ry="12.5" style="stroke:#2E4057;stroke-width:0.5;" width="188.0703" x="1258.8984" y="449.5103"/><text fill="#000000" font-family="Arial" font-size="12" lengthAdjust="spacing" textLength="168.0703" x="1268.8984" y="470.7661">Odczyt surowych bajtow z body</text><rect fill="#F7FAFC" height="47.5977" rx="12.5" ry="12.5" style="stroke:#2E4057;stroke-width:0.5;" width="167.3984" x="1269.2344" y="517.1079"/><text fill="#000000" font-family="Arial" font-size="12" lengthAdjust="spacing" textLength="147.3984" x="1279.2344" y="538.3638">Zapis pliku .wav lub .pcm16</text><text fill="#000000" font-family="Arial" font-size="12" lengthAdjust="spacing" textLength="123.4102" x="1279.2344" y="552.1626">w storage/audio/events</text><rect fill="#F7FAFC" height="33.7988" rx="12.5" ry="12.5" style="stroke:#2E4057;stroke-width:0.5;" width="266.1875" x="1219.8398" y="598.5044"/><text fill="#000000" font-family="Arial" font-size="12" lengthAdjust="spacing" textLength="246.1875" x="1229.8398" y="619.7603">Oznaczenie SoundEvent jako audio_uploaded</text><rect fill="#F7FAFC" height="33.7988" rx="12.5" ry="12.5" style="stroke:#2E4057;stroke-width:0.5;" width="177.4297" x="1264.2188" y="667.3032"/><text fill="#000000" font-family="Arial" font-size="12" lengthAdjust="spacing" textLength="157.4297" x="1274.2188" y="688.5591">Zwrot linku do pobrania audio</text><polygon fill="#FFF8E5" points="1560.3975,393.6924,1671.085,393.6924,1683.085,405.6924,1671.085,417.6924,1560.3975,417.6924,1548.3975,405.6924,1560.3975,393.6924" style="stroke:#8A6D1D;stroke-width:0.5;stroke-linejoin:miter;stroke-miterlimit:10;"/><text fill="#000000" font-family="Arial" font-size="11" lengthAdjust="spacing" textLength="43.4146" x="1619.7412" y="428.0103">incidents</text><text fill="#000000" font-family="Arial" font-size="11" lengthAdjust="spacing" textLength="110.6875" x="1560.3975" y="409.6858">Incydenty podejrzane?</text><text fill="#000000" font-family="Arial" font-size="11" lengthAdjust="spacing" textLength="20.7969" x="1683.085" y="403.3613">inne</text><rect fill="#F7FAFC" height="47.5977" rx="12.5" ry="12.5" style="stroke:#2E4057;stroke-width:0.5;" width="153.418" x="1539.0322" y="449.5103"/><text fill="#000000" font-family="Arial" font-size="12" lengthAdjust="spacing" textLength="131.3965" x="1549.0322" y="470.7661">Lista, odczyt, utworzenie</text><text fill="#000000" font-family="Arial" font-size="12" lengthAdjust="spacing" textLength="133.418" x="1549.0322" y="484.5649">lub usuniecie incydentow</text><rect fill="#F7FAFC" height="33.7988" rx="12.5" ry="12.5" style="stroke:#2E4057;stroke-width:0.5;" width="239.4277" x="1496.0273" y="530.9067"/><text fill="#000000" font-family="Arial" font-size="12" lengthAdjust="spacing" textLength="219.4277" x="1506.0273" y="552.1626">Wspolrzedne przechowywane w PostGIS</text><rect fill="#F7FAFC" height="33.7988" rx="12.5" ry="12.5" style="stroke:#2E4057;stroke-width:0.5;" width="129.4063" x="1745.4551" y="791.7253"/><text fill="#000000" font-family="Arial" font-size="12" lengthAdjust="spacing" textLength="109.4063" x="1755.4551" y="812.9812">Zwrot bledu 404/422</text><rect fill="none" height="109.4951" style="stroke:#000000;stroke-width:1.5;" width="278.7813" x="811.04" y="1159.9917"/><path d="M965.3877,1159.9917 L965.3877,1169.0903 L955.3877,1179.0903 L811.04,1179.0903" fill="none" style="stroke:#000000;stroke-width:1.5;"/><text fill="#000000" font-family="Arial" font-size="14" lengthAdjust="spacing" textLength="144.3477" x="814.04" y="1174.1235">PostgreSQL + PostGIS</text><rect fill="#F7FAFC" height="61.3965" rx="12.5" ry="12.5" style="stroke:#2E4057;stroke-width:0.5;" width="258.7813" x="821.04" y="1196.0903"/><text fill="#000000" font-family="Arial" font-size="12" lengthAdjust="spacing" textLength="122.7129" x="831.04" y="1217.3462">Trwaly zapis urzadzen,</text><text fill="#000000" font-family="Arial" font-size="12" lengthAdjust="spacing" textLength="122.748" x="831.04" y="1231.145">peakow, sound events,</text><text fill="#000000" font-family="Arial" font-size="12" lengthAdjust="spacing" textLength="238.7813" x="831.04" y="1244.9438">health reports, time sync events i incydentow</text><rect fill="none" height="163.2939" style="stroke:#000000;stroke-width:1.5;" width="210.7715" x="845.0449" y="1279.4868"/><path d="M911.0791,1279.4868 L911.0791,1288.5854 L901.0791,1298.5854 L845.0449,1298.5854" fill="none" style="stroke:#000000;stroke-width:1.5;"/><text fill="#000000" font-family="Arial" font-size="14" lengthAdjust="spacing" textLength="56.0342" x="848.0449" y="1293.6187">Frontend</text><rect fill="#F7FAFC" height="47.5977" rx="12.5" ry="12.5" style="stroke:#2E4057;stroke-width:0.5;" width="150.7227" x="875.0693" y="1315.5854"/><text fill="#000000" font-family="Arial" font-size="12" lengthAdjust="spacing" textLength="130.7227" x="885.0693" y="1336.8413">Pobranie listy czujnikow,</text><text fill="#000000" font-family="Arial" font-size="12" lengthAdjust="spacing" textLength="116.7246" x="885.0693" y="1350.6401">statusow i incydentow</text><rect fill="#F7FAFC" height="47.5977" rx="12.5" ry="12.5" style="stroke:#2E4057;stroke-width:0.5;" width="190.7715" x="855.0449" y="1383.1831"/><text fill="#000000" font-family="Arial" font-size="12" lengthAdjust="spacing" textLength="170.7715" x="865.0449" y="1404.439">Prezentacja na mapie operatora</text><text fill="#000000" font-family="Arial" font-size="12" lengthAdjust="spacing" textLength="150.0586" x="865.0449" y="1418.2378">i w panelu administracyjnym</text><ellipse cx="950.4307" cy="1473.7808" fill="none" rx="11" ry="11" style="stroke:#222222;stroke-width:1;"/><ellipse cx="950.4307" cy="1473.7808" fill="#222222" rx="6" ry="6" style="stroke:#222222;stroke-width:1;"/><line style="stroke:#181818;stroke-width:1;" x1="1048.3062" x2="1048.3062" y1="239.7949" y2="259.7949"/><polygon fill="#181818" points="1044.3062,249.7949,1048.3062,259.7949,1052.3062,249.7949,1048.3062,253.7949" style="stroke:#181818;stroke-width:1;stroke-linejoin:miter;stroke-miterlimit:10;"/><line style="stroke:#181818;stroke-width:1;" x1="867.8088" x2="852.5552" y1="183.9961" y2="183.9961"/><line style="stroke:#181818;stroke-width:1;" x1="852.5552" x2="852.5552" y1="183.9961" y2="205.9961"/><polygon fill="#181818" points="848.5552,195.9961,852.5552,205.9961,856.5552,195.9961,852.5552,199.9961" style="stroke:#181818;stroke-width:1;stroke-linejoin:miter;stroke-miterlimit:10;"/><line style="stroke:#181818;stroke-width:1;" x1="1033.0525" x2="1048.3062" y1="183.9961" y2="183.9961"/><line style="stroke:#181818;stroke-width:1;" x1="1048.3062" x2="1048.3062" y1="183.9961" y2="205.9961"/><polygon fill="#181818" points="1044.3062,195.9961,1048.3062,205.9961,1052.3062,195.9961,1048.3062,199.9961" style="stroke:#181818;stroke-width:1;stroke-linejoin:miter;stroke-miterlimit:10;"/><line style="stroke:#181818;stroke-width:1;" x1="852.5552" x2="852.5552" y1="239.7949" y2="286.7949"/><line style="stroke:#181818;stroke-width:1;" x1="852.5552" x2="950.4307" y1="286.7949" y2="286.7949"/><line style="stroke:#181818;stroke-width:1;" x1="950.4307" x2="950.4307" y1="286.7949" y2="339.8936"/><polygon fill="#181818" points="946.4307,329.8936,950.4307,339.8936,954.4307,329.8936,950.4307,333.8936" style="stroke:#181818;stroke-width:1;stroke-linejoin:miter;stroke-miterlimit:10;"/><line style="stroke:#181818;stroke-width:1;" x1="950.4307" x2="950.4307" y1="151.9961" y2="171.9961"/><polygon fill="#181818" points="946.4307,161.9961,950.4307,171.9961,954.4307,161.9961,950.4307,165.9961" style="stroke:#181818;stroke-width:1;stroke-linejoin:miter;stroke-miterlimit:10;"/><line style="stroke:#181818;stroke-width:1;" x1="950.4307" x2="950.4307" y1="72.0986" y2="118.1973"/><polygon fill="#181818" points="946.4307,108.1973,950.4307,118.1973,954.4307,108.1973,950.4307,112.1973" style="stroke:#181818;stroke-width:1;stroke-linejoin:miter;stroke-miterlimit:10;"/><line style="stroke:#181818;stroke-width:1;" x1="130.3945" x2="130.3945" y1="497.1079" y2="530.9067"/><polygon fill="#181818" points="126.3945,520.9067,130.3945,530.9067,134.3945,520.9067,130.3945,524.9067" style="stroke:#181818;stroke-width:1;stroke-linejoin:miter;stroke-miterlimit:10;"/><line style="stroke:#181818;stroke-width:1;" x1="130.3945" x2="130.3945" y1="564.7056" y2="598.5044"/><polygon fill="#181818" points="126.3945,588.5044,130.3945,598.5044,134.3945,588.5044,130.3945,592.5044" style="stroke:#181818;stroke-width:1;stroke-linejoin:miter;stroke-miterlimit:10;"/><line style="stroke:#181818;stroke-width:1;" x1="353.1738" x2="353.1738" y1="483.3091" y2="517.1079"/><polygon fill="#181818" points="349.1738,507.1079,353.1738,517.1079,357.1738,507.1079,353.1738,511.1079" style="stroke:#181818;stroke-width:1;stroke-linejoin:miter;stroke-miterlimit:10;"/><line style="stroke:#181818;stroke-width:1;" x1="353.1738" x2="353.1738" y1="550.9067" y2="584.7056"/><polygon fill="#181818" points="349.1738,574.7056,353.1738,584.7056,357.1738,574.7056,353.1738,578.7056" style="stroke:#181818;stroke-width:1;stroke-linejoin:miter;stroke-miterlimit:10;"/><line style="stroke:#181818;stroke-width:1;" x1="588.5918" x2="588.5918" y1="483.3091" y2="517.1079"/><polygon fill="#181818" points="584.5918,507.1079,588.5918,517.1079,592.5918,507.1079,588.5918,511.1079" style="stroke:#181818;stroke-width:1;stroke-linejoin:miter;stroke-miterlimit:10;"/><line style="stroke:#181818;stroke-width:1;" x1="588.5918" x2="588.5918" y1="564.7056" y2="598.5044"/><polygon fill="#181818" points="584.5918,588.5044,588.5918,598.5044,592.5918,588.5044,588.5918,592.5044" style="stroke:#181818;stroke-width:1;stroke-linejoin:miter;stroke-miterlimit:10;"/><line style="stroke:#181818;stroke-width:1;" x1="980.5684" x2="980.5684" y1="483.3091" y2="517.1079"/><polygon fill="#181818" points="976.5684,507.1079,980.5684,517.1079,984.5684,507.1079,980.5684,511.1079" style="stroke:#181818;stroke-width:1;stroke-linejoin:miter;stroke-miterlimit:10;"/><line style="stroke:#181818;stroke-width:1;" x1="980.5684" x2="980.5684" y1="550.9067" y2="584.7056"/><polygon fill="#181818" points="976.5684,574.7056,980.5684,584.7056,984.5684,574.7056,980.5684,578.7056" style="stroke:#181818;stroke-width:1;stroke-linejoin:miter;stroke-miterlimit:10;"/><line style="stroke:#181818;stroke-width:1;" x1="980.5684" x2="980.5684" y1="618.5044" y2="653.5044"/><polygon fill="#181818" points="976.5684,643.5044,980.5684,653.5044,984.5684,643.5044,980.5684,647.5044" style="stroke:#181818;stroke-width:1;stroke-linejoin:miter;stroke-miterlimit:10;"/><line style="stroke:#181818;stroke-width:1;" x1="852.0146" x2="852.0146" y1="790.1987" y2="825.1987"/><polygon fill="#181818" points="848.0146,815.1987,852.0146,825.1987,856.0146,815.1987,852.0146,819.1987" style="stroke:#181818;stroke-width:1;stroke-linejoin:miter;stroke-miterlimit:10;"/><line style="stroke:#181818;stroke-width:1;" x1="852.0146" x2="852.0146" y1="858.9976" y2="878.9976"/><polygon fill="#181818" points="848.0146,868.9976,852.0146,878.9976,856.0146,868.9976,852.0146,872.9976" style="stroke:#181818;stroke-width:1;stroke-linejoin:miter;stroke-miterlimit:10;"/><line style="stroke:#181818;stroke-width:1;" x1="852.0146" x2="852.0146" y1="926.5952" y2="946.5952"/><polygon fill="#181818" points="848.0146,936.5952,852.0146,946.5952,856.0146,936.5952,852.0146,940.5952" style="stroke:#181818;stroke-width:1;stroke-linejoin:miter;stroke-miterlimit:10;"/><line style="stroke:#181818;stroke-width:1;" x1="852.0146" x2="852.0146" y1="980.394" y2="1000.394"/><polygon fill="#181818" points="848.0146,990.394,852.0146,1000.394,856.0146,990.394,852.0146,994.394" style="stroke:#181818;stroke-width:1;stroke-linejoin:miter;stroke-miterlimit:10;"/><line style="stroke:#181818;stroke-width:1;" x1="852.0146" x2="852.0146" y1="1034.1929" y2="1054.1929"/><polygon fill="#181818" points="848.0146,1044.1929,852.0146,1054.1929,856.0146,1044.1929,852.0146,1048.1929" style="stroke:#181818;stroke-width:1;stroke-linejoin:miter;stroke-miterlimit:10;"/><line style="stroke:#181818;stroke-width:1;" x1="881.7473" x2="852.0146" y1="733.751" y2="733.751"/><line style="stroke:#181818;stroke-width:1;" x1="852.0146" x2="852.0146" y1="733.751" y2="756.3999"/><polygon fill="#181818" points="848.0146,746.3999,852.0146,756.3999,856.0146,746.3999,852.0146,750.3999" style="stroke:#181818;stroke-width:1;stroke-linejoin:miter;stroke-miterlimit:10;"/><line style="stroke:#181818;stroke-width:1;" x1="1079.3894" x2="1109.1221" y1="733.751" y2="733.751"/><line style="stroke:#181818;stroke-width:1;" x1="1109.1221" x2="1109.1221" y1="733.751" y2="756.3999"/><polygon fill="#181818" points="1105.1221,746.3999,1109.1221,756.3999,1113.1221,746.3999,1109.1221,750.3999" style="stroke:#181818;stroke-width:1;stroke-linejoin:miter;stroke-miterlimit:10;"/><line style="stroke:#181818;stroke-width:1;" x1="852.0146" x2="852.0146" y1="1087.9917" y2="1105.9917"/><line style="stroke:#181818;stroke-width:1;" x1="852.0146" x2="968.5684" y1="1105.9917" y2="1105.9917"/><polygon fill="#181818" points="958.5684,1101.9917,968.5684,1105.9917,958.5684,1109.9917,962.5684,1105.9917" style="stroke:#181818;stroke-width:1;stroke-linejoin:miter;stroke-miterlimit:10;"/><line style="stroke:#181818;stroke-width:1;" x1="1109.1221" x2="1109.1221" y1="790.1987" y2="1105.9917"/><line style="stroke:#181818;stroke-width:1;" x1="1109.1221" x2="992.5684" y1="1105.9917" y2="1105.9917"/><polygon fill="#181818" points="1002.5684,1101.9917,992.5684,1105.9917,1002.5684,1109.9917,998.5684,1105.9917" style="stroke:#181818;stroke-width:1;stroke-linejoin:miter;stroke-miterlimit:10;"/><line style="stroke:#181818;stroke-width:1;" x1="980.5684" x2="980.5684" y1="687.3032" y2="721.1021"/><polygon fill="#181818" points="976.5684,711.1021,980.5684,721.1021,984.5684,711.1021,980.5684,715.1021" style="stroke:#181818;stroke-width:1;stroke-linejoin:miter;stroke-miterlimit:10;"/><line style="stroke:#181818;stroke-width:1;" x1="1352.9336" x2="1352.9336" y1="483.3091" y2="517.1079"/><polygon fill="#181818" points="1348.9336,507.1079,1352.9336,517.1079,1356.9336,507.1079,1352.9336,511.1079" style="stroke:#181818;stroke-width:1;stroke-linejoin:miter;stroke-miterlimit:10;"/><line style="stroke:#181818;stroke-width:1;" x1="1352.9336" x2="1352.9336" y1="564.7056" y2="598.5044"/><polygon fill="#181818" points="1348.9336,588.5044,1352.9336,598.5044,1356.9336,588.5044,1352.9336,592.5044" style="stroke:#181818;stroke-width:1;stroke-linejoin:miter;stroke-miterlimit:10;"/><line style="stroke:#181818;stroke-width:1;" x1="1352.9336" x2="1352.9336" y1="632.3032" y2="667.3032"/><polygon fill="#181818" points="1348.9336,657.3032,1352.9336,667.3032,1356.9336,657.3032,1352.9336,661.3032" style="stroke:#181818;stroke-width:1;stroke-linejoin:miter;stroke-miterlimit:10;"/><line style="stroke:#181818;stroke-width:1;" x1="1615.7412" x2="1615.7412" y1="497.1079" y2="530.9067"/><polygon fill="#181818" points="1611.7412,520.9067,1615.7412,530.9067,1619.7412,520.9067,1615.7412,524.9067" style="stroke:#181818;stroke-width:1;stroke-linejoin:miter;stroke-miterlimit:10;"/><line style="stroke:#181818;stroke-width:1;" x1="130.3945" x2="130.3945" y1="417.6924" y2="449.5103"/><polygon fill="#181818" points="126.3945,439.5103,130.3945,449.5103,134.3945,439.5103,130.3945,443.5103" style="stroke:#181818;stroke-width:1;stroke-linejoin:miter;stroke-miterlimit:10;"/><line style="stroke:#181818;stroke-width:1;" x1="130.3945" x2="130.3945" y1="646.1021" y2="1137.9917"/><polygon fill="#181818" points="126.3945,1127.9917,130.3945,1137.9917,134.3945,1127.9917,130.3945,1131.9917" style="stroke:#181818;stroke-width:1;stroke-linejoin:miter;stroke-miterlimit:10;"/><line style="stroke:#181818;stroke-width:1;" x1="353.1738" x2="353.1738" y1="417.6924" y2="449.5103"/><polygon fill="#181818" points="349.1738,439.5103,353.1738,449.5103,357.1738,439.5103,353.1738,443.5103" style="stroke:#181818;stroke-width:1;stroke-linejoin:miter;stroke-miterlimit:10;"/><line style="stroke:#181818;stroke-width:1;" x1="353.1738" x2="353.1738" y1="632.3032" y2="1137.9917"/><polygon fill="#181818" points="349.1738,1127.9917,353.1738,1137.9917,357.1738,1127.9917,353.1738,1131.9917" style="stroke:#181818;stroke-width:1;stroke-linejoin:miter;stroke-miterlimit:10;"/><line style="stroke:#181818;stroke-width:1;" x1="588.5918" x2="588.5918" y1="417.6924" y2="449.5103"/><polygon fill="#181818" points="584.5918,439.5103,588.5918,449.5103,592.5918,439.5103,588.5918,443.5103" style="stroke:#181818;stroke-width:1;stroke-linejoin:miter;stroke-miterlimit:10;"/><line style="stroke:#181818;stroke-width:1;" x1="588.5918" x2="588.5918" y1="632.3032" y2="1137.9917"/><polygon fill="#181818" points="584.5918,1127.9917,588.5918,1137.9917,592.5918,1127.9917,588.5918,1131.9917" style="stroke:#181818;stroke-width:1;stroke-linejoin:miter;stroke-miterlimit:10;"/><line style="stroke:#181818;stroke-width:1;" x1="980.5684" x2="980.5684" y1="417.6924" y2="449.5103"/><polygon fill="#181818" points="976.5684,439.5103,980.5684,449.5103,984.5684,439.5103,980.5684,443.5103" style="stroke:#181818;stroke-width:1;stroke-linejoin:miter;stroke-miterlimit:10;"/><line style="stroke:#181818;stroke-width:1;" x1="980.5684" x2="980.5684" y1="1117.9917" y2="1137.9917"/><polygon fill="#181818" points="976.5684,1127.9917,980.5684,1137.9917,984.5684,1127.9917,980.5684,1131.9917" style="stroke:#181818;stroke-width:1;stroke-linejoin:miter;stroke-miterlimit:10;"/><line style="stroke:#181818;stroke-width:1;" x1="1352.9336" x2="1352.9336" y1="417.6924" y2="449.5103"/><polygon fill="#181818" points="1348.9336,439.5103,1352.9336,449.5103,1356.9336,439.5103,1352.9336,443.5103" style="stroke:#181818;stroke-width:1;stroke-linejoin:miter;stroke-miterlimit:10;"/><line style="stroke:#181818;stroke-width:1;" x1="1352.9336" x2="1352.9336" y1="701.1021" y2="1137.9917"/><polygon fill="#181818" points="1348.9336,1127.9917,1352.9336,1137.9917,1356.9336,1127.9917,1352.9336,1131.9917" style="stroke:#181818;stroke-width:1;stroke-linejoin:miter;stroke-miterlimit:10;"/><line style="stroke:#181818;stroke-width:1;" x1="1615.7412" x2="1615.7412" y1="417.6924" y2="449.5103"/><polygon fill="#181818" points="1611.7412,439.5103,1615.7412,449.5103,1619.7412,439.5103,1615.7412,443.5103" style="stroke:#181818;stroke-width:1;stroke-linejoin:miter;stroke-miterlimit:10;"/><line style="stroke:#181818;stroke-width:1;" x1="1615.7412" x2="1615.7412" y1="564.7056" y2="1137.9917"/><polygon fill="#181818" points="1611.7412,1127.9917,1615.7412,1137.9917,1619.7412,1127.9917,1615.7412,1131.9917" style="stroke:#181818;stroke-width:1;stroke-linejoin:miter;stroke-miterlimit:10;"/><line style="stroke:#181818;stroke-width:1;" x1="191.3198" x2="284.9224" y1="405.6924" y2="405.6924"/><polygon fill="#181818" points="274.9224,401.6924,284.9224,405.6924,274.9224,409.6924,278.9224,405.6924" style="stroke:#181818;stroke-width:1;stroke-linejoin:miter;stroke-miterlimit:10;"/><line style="stroke:#181818;stroke-width:1;" x1="421.4253" x2="540.5115" y1="405.6924" y2="405.6924"/><polygon fill="#181818" points="530.5115,401.6924,540.5115,405.6924,530.5115,409.6924,534.5115,405.6924" style="stroke:#181818;stroke-width:1;stroke-linejoin:miter;stroke-miterlimit:10;"/><line style="stroke:#181818;stroke-width:1;" x1="636.6721" x2="897.6431" y1="405.6924" y2="405.6924"/><polygon fill="#181818" points="887.6431,401.6924,897.6431,405.6924,887.6431,409.6924,891.6431,405.6924" style="stroke:#181818;stroke-width:1;stroke-linejoin:miter;stroke-miterlimit:10;"/><line style="stroke:#181818;stroke-width:1;" x1="1063.4937" x2="1271.2168" y1="405.6924" y2="405.6924"/><polygon fill="#181818" points="1261.2168,401.6924,1271.2168,405.6924,1261.2168,409.6924,1265.2168,405.6924" style="stroke:#181818;stroke-width:1;stroke-linejoin:miter;stroke-miterlimit:10;"/><line style="stroke:#181818;stroke-width:1;" x1="1434.6504" x2="1548.3975" y1="405.6924" y2="405.6924"/><polygon fill="#181818" points="1538.3975,401.6924,1548.3975,405.6924,1538.3975,409.6924,1542.3975,405.6924" style="stroke:#181818;stroke-width:1;stroke-linejoin:miter;stroke-miterlimit:10;"/><line style="stroke:#181818;stroke-width:1;" x1="950.4307" x2="950.4307" y1="373.6924" y2="378.6924"/><line style="stroke:#181818;stroke-width:1;" x1="950.4307" x2="130.3945" y1="378.6924" y2="378.6924"/><line style="stroke:#181818;stroke-width:1;" x1="130.3945" x2="130.3945" y1="378.6924" y2="393.6924"/><polygon fill="#181818" points="126.3945,383.6924,130.3945,393.6924,134.3945,383.6924,130.3945,387.6924" style="stroke:#181818;stroke-width:1;stroke-linejoin:miter;stroke-miterlimit:10;"/><line style="stroke:#181818;stroke-width:1;" x1="1683.085" x2="1810.1582" y1="405.6924" y2="405.6924"/><line style="stroke:#181818;stroke-width:1;" x1="1810.1582" x2="1810.1582" y1="405.6924" y2="791.7253"/><polygon fill="#181818" points="1806.1582,781.7253,1810.1582,791.7253,1814.1582,781.7253,1810.1582,785.7253" style="stroke:#181818;stroke-width:1;stroke-linejoin:miter;stroke-miterlimit:10;"/><line style="stroke:#181818;stroke-width:1;" x1="1810.1582" x2="1810.1582" y1="825.5242" y2="1137.9917"/><polygon fill="#181818" points="1806.1582,1127.9917,1810.1582,1137.9917,1814.1582,1127.9917,1810.1582,1131.9917" style="stroke:#181818;stroke-width:1;stroke-linejoin:miter;stroke-miterlimit:10;"/><line style="stroke:#181818;stroke-width:1;" x1="130.3945" x2="1810.1582" y1="1137.9917" y2="1137.9917"/><line style="stroke:#181818;stroke-width:1;" x1="950.4307" x2="950.4307" y1="1137.9917" y2="1196.0903"/><polygon fill="#181818" points="946.4307,1186.0903,950.4307,1196.0903,954.4307,1186.0903,950.4307,1190.0903" style="stroke:#181818;stroke-width:1;stroke-linejoin:miter;stroke-miterlimit:10;"/><line style="stroke:#181818;stroke-width:1;" x1="950.4307" x2="950.4307" y1="1363.1831" y2="1383.1831"/><polygon fill="#181818" points="946.4307,1373.1831,950.4307,1383.1831,954.4307,1373.1831,950.4307,1377.1831" style="stroke:#181818;stroke-width:1;stroke-linejoin:miter;stroke-miterlimit:10;"/><line style="stroke:#181818;stroke-width:1;" x1="950.4307" x2="950.4307" y1="1257.4868" y2="1315.5854"/><polygon fill="#181818" points="946.4307,1305.5854,950.4307,1315.5854,954.4307,1305.5854,950.4307,1309.5854" style="stroke:#181818;stroke-width:1;stroke-linejoin:miter;stroke-miterlimit:10;"/><line style="stroke:#181818;stroke-width:1;" x1="950.4307" x2="950.4307" y1="1430.7808" y2="1462.7808"/><polygon fill="#181818" points="946.4307,1452.7808,950.4307,1462.7808,954.4307,1452.7808,950.4307,1456.7808" style="stroke:#181818;stroke-width:1;stroke-linejoin:miter;stroke-miterlimit:10;"/><g class="caption" data-source-line="2"><text fill="#000000" font-family="Arial" font-size="14" lengthAdjust="spacing" textLength="686.3623" x="608.2495" y="1507.9126">FastAPI na VPS obsluguje urzadzenia, synchronizacje czasu, health reports, zdarzenia dzwiekowe i incydenty.</text></g><?plantuml-src dLRRRjj647tNLmpI5mULhVYInAs05eelYT7KTYsx1We3neWxabOaTvczc2MB_djdbnH5AUb3wmV3vixEpfmvv-mwwJA2C-agc7WXDVogbNJQm3vaUY5JX1acAIdX1maMJce5bsZTvFOA5CBljrFGCvlvXLyHU5EZg4b978AjLB8qdAl6X9UI6gqVmf8mSqimL6ZZx11gWIPk056Nab9T4aYGAga4ALST30OsbQf0WtciOs6qL-9CPrpWTvVnfnTXboXqATK2vfXPwgq8cgFFtALMxXfpWecHcFNMCN7o9M3mrm3WmrS7lR-SN9w55Mq4cVRhqSN9cxVl-Ukvn5mhyU4RzPrUlEq5z7UVJjwT7vxpujIXSRifBxeaxQU_6OaGE1XmmKx6ERmAw8_WUY7LdwzYvJ_UchfQKI89U18OSFrqVtyx2h-cOmwGSzYRydBDS-N1r1NFq7Aq5Z32Glxy6joI5EmvJ5zpU9EHKgmvroQdq6iEX9p4KCCUhxSx_YYDJYZ4ptd-Zga3TyG0Z-EoTRe8cvIGyz1Lhvqrhrh2jIqzOYO5SmYPDLyyMUUP8JPPKevEbt1RSKrE9kD1snv3LsYfNCV6hYb1Bp8XsvPvHojEPaBc8VVFMBWXOEeydnSuYqygypFmrdCh0T4DkyTjeuoOPPMaxGu9N8wsxkFLj8qurnc37B7Wx-ZuZuNU5i6JajtQQbirib5Dx2o078VN3y0cO3CroTGEATeMfuN1CfPCGmwjDYsmocmyaRPwsSXnkv3nPh8EmYbSS5um-fPCIGP34umbpIkuy4OND7f4Ox7SAlqEGxzjzrtDpR__j-2vD7c9Xk25Z6KI3S4NeRxXatgK-vTo2BbCZPvhnUPpTJqvElnXoBvLy4IPHRbEggtMwf0KLHYIYTLkWtyTx6cD4Mqigsl61lK3lR1t_VUE7bofsyotX2dKSRgKD_cUGrlFoduTF0s7NeGOtfAJ2oAjSicUvoZT3E_1-6IfSndt546YrZuRIaBkWi-piTNM8fXPcd5QvP6Lnn02v9EgmUXQLScoQuCfhzEGSOU9Q_y83g9d9jf7QGkTST4YPbWFXbbKRyk6z_oY5VFACiCVFqvFJs3_9_1fXYBqPwg4Q-X2xzdArS9dKG_tvpSJrYsnappRBvwPOU5xxfP4gctIJip3ySanv2FxZUFAIaaEO8UB1tSH3TsctXOoaThRAvN8S4Lr0JUrMaizWCLThVWt7rrJ79KEJJVHEuOPDlFEL9OH9NRaL6UqKXkgjORJU6QFZmz5fXaJZFUso72peHj4N6kvU1DD3Ymhj0mJcE7AHVHdMbHRiYgo0C91YIyGFF2WIFB3Tq-g3EvjS46Zc7OKYRbcP0-07YCZ237wsSTgIMmfBfEgWRjeM89Dy9RihjRF0GuIj6BcgOtaP3k8jQr_PbNr3DrtEjcry_KZGvTjGOyTFIcEZTLILZmJwjjwTzz9fVeNdeDPHiB3oPkJqSdHqVXVhhYGPs5e-jjdfcMRjBtdxas9MTLOK2Slzh66JVoWsdYBvS-xBwdE-zkGtZCgTBXpqxONy_hLi5Penk1LB6M_OXNmeKygt4pUCala3c3yC20kq4NPCMVpOAh0rcymS2JS22KKZ5xc0KKkbOoNRRLYRnetpnb-2Fm3?></g></svg>